<?xml version="1.0" standalone="no"?><!DOCTYPE svg PUBLIC "-//W3C//DTD SVG 1.1//EN" "http://www.w3.org/Graphics/SVG/1.1/DTD/svg11.dtd"><svg t="1652160469258" class="icon" viewBox="0 0 1024 1024" version="1.1" xmlns="http://www.w3.org/2000/svg" p-id="1279" xmlns:xlink="http://www.w3.org/1999/xlink" width="200" height="200"><defs><style type="text/css">@font-face { font-family: feedback-iconfont; src: url("//at.alicdn.com/t/font_1031158_u69w8yhxdu.woff2?t=1630033759944") format("woff2"), url("//at.alicdn.com/t/font_1031158_u69w8yhxdu.woff?t=1630033759944") format("woff"), url("//at.alicdn.com/t/font_1031158_u69w8yhxdu.ttf?t=1630033759944") format("truetype"); }
</style></defs><path d="M474.453333 884.053333c-225.28 0-409.6-184.32-409.6-409.6s184.32-409.6 409.6-409.6 409.6 184.32 409.6 409.6-184.32 409.6-409.6 409.6z m0-68.266666c187.733333 0 341.333333-153.6 341.333334-341.333334s-153.6-341.333333-341.333334-341.333333-341.333333 153.6-341.333333 341.333333 153.6 341.333333 341.333333 341.333334z m252.586667 54.613333c-13.653333-13.653333-10.24-37.546667 3.413333-47.786667s37.546667-10.24 47.786667 3.413334l64.853333 78.506666c13.653333 13.653333 10.24 37.546667-3.413333 47.786667s-37.546667 10.24-47.786667-3.413333l-64.853333-78.506667z" p-id="1280"></path></svg>