<?xml version="1.0" encoding="utf-8"?>
<!-- Generator: Adobe Illustrator 27.3.1, SVG Export Plug-In . SVG Version: 6.00 Build 0)  -->
<svg version="1.1" id="レイヤー_1" xmlns="http://www.w3.org/2000/svg" xmlns:xlink="http://www.w3.org/1999/xlink" x="0px"
	 y="0px" viewBox="0 0 35 35" style="enable-background:new 0 0 35 35;" xml:space="preserve">
<style type="text/css">
	.st0{fill:#231815;}
</style>
<path id="Icon_awesome-instagram" class="st0" d="M17.5,8.5c-5,0-9,4-9,9s4,9,9,9s9-4,9-9c0,0,0,0,0,0C26.5,12.6,22.5,8.5,17.5,8.5
	C17.5,8.5,17.5,8.5,17.5,8.5z M17.5,23.3c-3.2,0-5.8-2.6-5.8-5.8s2.6-5.8,5.8-5.8s5.8,2.6,5.8,5.8c0,0,0,0,0,0
	C23.3,20.7,20.7,23.3,17.5,23.3z M28.9,8.2c0,1.2-0.9,2.1-2.1,2.1c-1.2,0-2.1-0.9-2.1-2.1c0-1.2,0.9-2.1,2.1-2.1
	C28,6.1,28.9,7,28.9,8.2C28.9,8.2,28.9,8.2,28.9,8.2z M34.9,10.3C34.7,7.5,34.1,5,32.1,3s-4.5-2.7-7.3-2.8C21.8,0,13.2,0,10.3,0.1
	C7.5,0.3,5,0.9,2.9,2.9s-2.7,4.5-2.8,7.3C0,13.2,0,21.8,0.1,24.7C0.3,27.5,0.9,30,3,32s4.5,2.7,7.3,2.8c2.9,0.2,11.5,0.2,14.4,0
	c2.8-0.1,5.3-0.8,7.3-2.8s2.7-4.5,2.8-7.3C35,21.8,35,13.2,34.9,10.3L34.9,10.3z M31.1,27.8c-0.6,1.5-1.8,2.7-3.3,3.3
	c-2.3,0.9-7.8,0.7-10.3,0.7s-8,0.2-10.3-0.7c-1.5-0.6-2.7-1.8-3.3-3.3C2.9,25.5,3.2,20,3.2,17.5S3,9.5,3.9,7.2
	c0.6-1.5,1.8-2.7,3.3-3.3C9.5,2.9,15,3.2,17.5,3.2s8-0.2,10.3,0.7c1.5,0.6,2.7,1.8,3.3,3.3c0.9,2.3,0.7,7.8,0.7,10.3
	S32.1,25.5,31.1,27.8z"/>
</svg>
