<?xml version="1.0" encoding="utf-8"?>
<!-- Generator: Adobe Illustrator 27.3.1, SVG Export Plug-In . SVG Version: 6.00 Build 0)  -->
<svg version="1.1" id="レイヤー_1" xmlns="http://www.w3.org/2000/svg" xmlns:xlink="http://www.w3.org/1999/xlink" x="0px"
	 y="0px" viewBox="0 0 37 37" style="enable-background:new 0 0 37 37;" xml:space="preserve">
<style type="text/css">
	.st0{fill:#231815;}
</style>
<path id="Icon_awesome-facebook" class="st0" d="M37,18.5C36.9,8.3,28.6,0.1,18.4,0.1S-0.1,8.5,0,18.7c0.1,9.1,6.7,16.7,15.6,18.2
	v-13h-4.7v-5.4h4.7v-4.1c0-4.7,2.8-7.2,7-7.2c1.4,0,2.8,0.1,4.1,0.4v4.6h-2.3c-1.5-0.2-2.8,0.8-3,2.3c0,0.2,0,0.4,0,0.6v3.5h5.1
	l-0.8,5.4h-4.3v13C30.4,35.4,37,27.6,37,18.5z"/>
</svg>
