<?xml version="1.0" encoding="utf-8"?>
<!-- Generator: Adobe Illustrator 27.3.1, SVG Export Plug-In . SVG Version: 6.00 Build 0)  -->
<svg version="1.1" id="レイヤー_1" xmlns="http://www.w3.org/2000/svg" xmlns:xlink="http://www.w3.org/1999/xlink" x="0px"
	 y="0px" viewBox="0 0 38 38" style="enable-background:new 0 0 38 38;" xml:space="preserve">
<style type="text/css">
	.st0{fill:#231815;}
</style>
<path id="Icon_awesome-twitter" class="st0" d="M34.1,11.7c0,0.3,0,0.6,0,1c0,9.7-7.8,20.8-22.2,20.8c-4.2,0-8.3-1.1-12-3.3
	c0.6,0.1,1.3,0.1,1.9,0.1c3.5,0,6.9-1.1,9.7-3.1c-3.3,0-6.2-2-7.3-5.1c0.5,0.1,1,0.1,1.5,0.1c0.7,0,1.4-0.1,2-0.2
	c-3.5-0.6-6.2-3.6-6.2-7.2v-0.1c1.1,0.6,2.3,0.9,3.5,0.9C2.9,14.3,1.6,12,1.6,9.5c0-1.3,0.4-2.6,1.1-3.7c4.1,4.6,9.9,7.4,16.1,7.7
	c-0.1-0.6-0.2-1.1-0.2-1.7c0.1-4.2,3.6-7.4,7.8-7.3c2.1,0,4.2,0.8,5.7,2.3c1.7-0.3,3.4-0.9,4.9-1.8c-0.6,1.7-1.8,3.2-3.4,4
	c1.5-0.2,3-0.5,4.5-1.1C36.9,9.4,35.6,10.7,34.1,11.7L34.1,11.7z"/>
</svg>
