<?xml version="1.0" encoding="utf-8"?>
<!-- Generator: Adobe Illustrator 27.3.1, SVG Export Plug-In . SVG Version: 6.00 Build 0)  -->
<svg version="1.1" id="レイヤー_1" xmlns="http://www.w3.org/2000/svg" xmlns:xlink="http://www.w3.org/1999/xlink" x="0px"
	 y="0px" viewBox="0 0 380 76.8" style="enable-background:new 0 0 380 76.8;" xml:space="preserve">
<style type="text/css">
	.st0{fill:#1A1311;}
	.st1{fill:#231815;}
</style>
<g id="グループ_32308">
	<path id="パス_296" class="st0" d="M158.6,58.5c-5.8-1.8-13.5-6.4-16.7-10.2c5.5-0.1,9.4-0.2,11-0.1c1,0,1.9-0.7,2.1-1.7
		c0.1-0.8,0.5-3.6,0.6-4.2s0.2-1.2-1.1-1.2c-0.6,0-6.6,0.1-13.3,0.3c0-1.6,0-2.7,0-2.8c0.2-0.8,0.5-1.6,0.9-2.3
		c0.3-0.8,0.2-1.7-0.4-2.4c-0.9-0.8-2-1.5-3.1-2.1c-0.6-0.4-1.4-0.4-2,0c-0.6,0.4-1.8,1.5-1.4,2c0.3,0.6,0.6,1.3,0.6,2
		c0.1,0.3,0.1,2.6,0.1,5.8c-6.8,0.3-13.1,0.7-13.4,0.8c-0.7,0-1.3,0.5-1.5,1.1c-0.5,1.8-0.4,3.8,0.2,5.5c0.4,0.6,0.8,0.9,1.2,0.7
		c0.6-0.2,1.1-0.4,1.7-0.5c1-0.2,5.2-0.4,10.4-0.6c-7.4,8-16.2,10.9-17,11s-0.7,0.6-0.5,0.8c0.2,0.2,3,4.3,3.8,4.9s2.7,1.7,5.3-0.4
		c3.7-3.4,7-7.1,9.8-11.2c0.1,6.7,0.1,12.8,0.2,13.3c0.1,0.8,0.3,1.6,0.7,2.4c0.4,0.8,1.1,1.8,1.9,1.8s1.7-1,2.1-1.7
		c0.4-0.7,0.7-1.5,0.7-2.3c0-0.5-0.1-6.6-0.2-13c2.7,3.5,8.7,9.8,10.1,10.5c1.6,0.9,2.2,0.9,3.2,0.2c1.8-1.3,3.3-3.1,4.3-5.1
		C159.5,58.6,159.1,58.7,158.6,58.5"/>
	<path id="パス_297" class="st0" d="M180.8,41c-0.2,0-1.5,0-3.1,0c0-1.2,0.1-2.4,0.4-3.6c0.4-0.8,0.4-1.7,0-2.5
		c-0.7-1.2-1.7-2.1-2.9-2.7c-0.8-0.3-1.7-0.3-2.5-0.1c-0.9,0.4-1.3,1.5-0.9,2.5c0,0,0,0,0,0c0.5,1,0.6,0.8,0.8,1.8
		c0.2,1.5,0.3,3.1,0.3,4.6c-2.8,0-5.3,0-5.6,0c-0.8,0.1-1.1,0.3-1.8,1.2c-0.9,1.3-1.3,3-0.9,4.6c0.2,0.5,0.7,0.9,1.3,1
		c0.7,0,0.6-0.1,1.1-0.2c0.3-0.1,2.6,0,5.5-0.1c-0.8,3.5-9.2,7.7-10.2,8c-1.2,0.4-1,0.5-0.8,0.9c0.8,1.7,1.9,3.2,3.1,4.7
		c0.9,1,2.2,1.1,3.6,0c0.8-0.6,3-3.3,4.8-5.2c0,5.1-0.1,9.4,0,9.8c0.1,0.8,0.3,1.6,0.7,2.4c0.4,0.8,1.2,1.9,1.9,1.8s1.3-0.9,1.6-1.5
		c0.5-1,0.7-2,0.7-3c0.1-0.7-0.1-6.2-0.2-12.2c0.9,0,1.9,0,2.8-0.1c0.7-0.1,1.2-0.8,1.1-1.5c0-0.2-0.1-0.4-0.2-0.6
		c-1.1-1.1-2.4-2.1-3.7-3c0-0.3,0-0.5,0-0.8c1.1,0,2-0.1,2.1-0.1c0.8-0.1,1.7-1.8,1.9-2.4c0.1-0.9,0.2-1.8,0.1-2.8
		C181.7,41.6,181.4,41.1,180.8,41"/>
	<path id="パス_298" class="st0" d="M201,40c-0.4,0-1.7,0-3.2,0.1c0-2.7,0.1-4.6,0.1-4.8c0.2-0.5,0.3-1.1,0.4-1.6
		c0.1-0.6-0.3-1-0.8-1.3c-0.9-0.7-2-1.1-3.1-1.2c-1.3,0.3-2.2,1.5-2,2.8c0.2,0.8,0.3,1.7,0.3,2.5c0,0.3,0.1,1.7,0.2,3.6
		c-3,0-5.9,0-6.7,0.1c-0.9,0-1.7,0.4-2.2,1.2c-0.8,1.4-0.9,3.1-0.5,4.6c0.3,0.6,0.6,1,1.2,0.7c0.5-0.2,1-0.3,1.6-0.4
		c0.4,0,3.4-0.1,6.7-0.1c0,6.2-0.2,13.3-0.4,14.6c-0.1,0.9-0.3,2-1.4,2.1c-6.5,0.5-7.6-0.9-7.9-1c-0.4-0.1-0.6-0.1-0.4,0.4
		s3.6,8.4,8.7,8.1c2-0.3,3.8-1.3,5.1-2.9c0.7-1.1,1.1-2.4,1.1-3.7c0.1-0.9-0.2-10-0.3-17.7c0.9,0,1.7-0.1,1.9-0.1
		c1.3-0.2,1.6-1.3,1.9-2.4c0,0,0.2-1.6,0.2-2.3C201.8,40.3,201.8,40,201,40"/>
	<path id="パス_299" class="st0" d="M188.8,59.2c1-2.2,1.3-4.7,1-7.1c-0.4-2-2.4-3.2-4.3-2.8c-0.2,0-0.4,0.1-0.6,0.2
		c-1.7,0.7-1.2,2.8-0.6,3.3c1.8,1.6,3.3,5.4,3.7,6.5C188.4,59.8,188.6,59.7,188.8,59.2"/>
	<path id="パス_300" class="st0" d="M216.4,45.5c0.1-0.2,0.1-0.4,0.6-0.5c3.1-0.8,19.2-0.8,20.7-0.9c1.5-0.2,2.8-1.1,3.5-2.4
		c0.6-1.1,1.2-3.5,1.7-4c0.5-0.4,1-1,0.7-1.6c-0.8-1-1.7-1.8-2.7-2.4c-1-0.6-2.1-1-3.3-0.9c-2-0.1-22.4,0.2-23.7,0.4
		c-1,0.2-1.3,0.6-1.3,1.1c-0.1,1.4,0,16.8-3.4,22c-1,1.6-2.4,2.9-4.1,3.7c-0.5,0.2-0.4,0.5-0.2,1s3,3.9,3.9,4.3
		c1.2,0.6,1.8,0.9,3.1-0.2C214.5,63.2,216.3,54.3,216.4,45.5 M216.4,38.5c0-0.3,0.2-0.5,0.5-0.6c0.7-0.1,5.2-0.4,9.8-0.6
		c4.1-0.1,8.3-0.2,9.4-0.2c0.7,0,0.8,0.2,0.8,0.6c0,0.3,0,0.6-0.1,0.9c0,0.5-0.4,0.8-0.8,0.8c0,0,0,0,0,0c-1.2,0-17.5,0.7-19,0.8
		c-0.5,0-0.5-0.3-0.5-0.6C216.4,39.3,216.4,38.9,216.4,38.5"/>
	<path id="パス_301" class="st0" d="M247.3,64.1c-2.4-0.4-11.1,0-15.9,0.1c0-0.5-0.1-1-0.1-1.6c3.2-0.1,6-0.2,6.5-0.2
		c0.7,0,1.4-0.3,1.8-0.9c0.4-0.5,0.6-1,0.6-1.6c0.1-0.6-0.1-1.2-1.6-1.4c-1.2-0.1-4.1-0.2-7.2-0.1c0-0.2,0.1-0.4,0.1-0.6
		c0.1-0.4,0.3-0.7,0.7-1c3,0,5.6-0.1,6.3-0.2c1.1-0.2,2-1,2.2-2.2c-0.3-1.5-0.9-3-1.7-4.4c0.7,0,1.3,0,1.7,0.1
		c0.8,0.1,1.5-0.3,1.8-1.1c0.2-0.4,0.5-1.4,0.7-2.1c0.2-0.7,0-1-0.9-1.1c-1.5-0.2-22.3,0.2-24.4,0.6c-0.6,0-1,0.5-1.1,1
		c-0.2,0.7-0.3,1.4-0.2,2.2c0.2,0.8,0.4,1.2,1.3,1c0.4-0.1,1.5-0.2,3.2-0.2c-0.1,0.4-0.2,0.8-0.2,0.9c-0.1,0.6-0.6,1-1.1,1.1
		c-0.6,0.1-0.6,0.4-0.8,1.1c-0.2,1.1-0.2,2.3,0,3.4c0.1,0.3,0.3,0.7,0.7,0.7s0.4-0.3,1-0.5c1.9-0.2,3.8-0.3,5.7-0.3
		c0.3,0.2,0.5,0.5,0.5,0.8c0.1,0.3,0.1,0.6,0.2,0.9c-2.2,0-4.4,0.3-6.6,0.7c-1,0.3-1.1,0.7-1.1,1.3c0,0.6,0.1,1.3,0.2,1.9
		c0.1,0.6,0.1,0.9,0.8,0.9c0.4-0.1,0.8-0.2,1.2-0.3c0.3-0.1,2.8-0.2,5.8-0.3c0,0.6,0,1.1,0,1.6c-3.9,0.1-9.4,0.1-12.7,0.4
		c-1.1,0-2.1,0.7-2.7,1.6c-0.6,1-0.5,2.3,0.2,3.2c0.8,0.5,1.8,0.6,2.6,0.2c4.8-0.8,9.8-1.3,14.7-1.3c4.3,0.1,8.7,0.4,12.9,1
		c1.3,0.2,2.7-0.3,3.5-1.3c0.6-0.9,1.2-1.8,1.6-2.8C247.9,64.8,248.2,64.2,247.3,64.1 M225.2,52c-0.3,0-0.3-0.2-0.3-0.4
		c0.1-0.5,0.3-1,0.7-1.3c1.5-0.1,3.1-0.1,4.7-0.1c1.2,0,2.3-0.1,3.4-0.1c0.7,0,1.3,0.2,1.8,0.6c0.2,0.2,0.3,1-0.2,1
		C234.6,51.7,225.6,52.1,225.2,52"/>
	<path id="パス_302" class="st0" d="M268.8,54.4c-0.3,0.7-0.7,1.4-1.2,2.1c-0.1-0.2-0.1-0.3-0.2-0.5c-0.7-1-1.5-1.9-2.4-2.7
		c0.5-0.7,1.1-1.3,1.8-1.8c1.2-0.5,1.7-1.8,1.2-3c0-0.1-0.1-0.2-0.1-0.3c-1-1.6-2.3-3.1-3.7-4.3c2.2-1.6,4.4-3.1,4.8-3.4
		c0.7-0.6,0.5-2.6-0.4-3.8c-1.3-1.7-3.3-2.5-4.3-3c-0.3-0.7-0.6-1.3-1-1.9c-0.3-0.5-0.6-0.5-1.2-0.1c-1.2,0.7-6.6,6-7,6.6
		c-0.4,0.6-0.4,0.9,0,1.5c1,1.5,2.1,2.9,3.5,4.1c-1.5,1.1-2.8,2.3-4.1,3.7c-0.8,0.8-0.9,2.2-0.1,3c0.8,1.1,1.7,2.1,2.8,2.8l1.5,0.9
		c-1,1.3-2.2,2.3-3.6,3.2c-1,0.7-2.2,1-3.4,0.8c-1-0.2-1.3-0.1-0.5,1.4c0.6,1.5-0.1,1.5,2.1,3.5c1.7,1.6,3.2,0.1,3.8-0.4
		c0.7-0.7,1.4-1.5,2-2.3c0,1.2,0.1,2.4,0.1,2.9c0,1.2,0.2,2.5,0.6,3.6c0.4,0.9,1.4,1.9,1.8,1.9c0.4,0,0.5-0.4,1.1-1.3
		c0.4-0.7,0.7-1.5,0.7-2.3c0.6,0.6,1.3,1,2,1.3c1,0.3,1.3,0.4,1.8-0.2c2.5-2.5,3-10.4,2.7-11.8C269.6,54.2,269,53.9,268.8,54.4
		 M263,48.3c0,0.4-0.7,1-1.6,2.2c-1.2-0.9-2.2-1.5-2.3-1.6c-0.4-0.2-0.6-0.2-0.2-0.9c0.6-0.6,1.3-1.2,2.1-1.7
		C262.1,47.3,263,48,263,48.3 M260,39.1c0.2-0.3,1.2-1.1,2.3-2c0.6,0.2,1.2,0.5,1.8,0.9c0.2,0.2,0.2,0.4,0,0.7c-0.8,1-1.7,2-2.7,2.9
		c-0.4-0.3-0.8-0.6-1.2-0.9C259,39.9,259.6,39.7,260,39.1 M263.4,62.3c-0.1-1.6-0.2-3.6-0.1-4.8c0.5,0.3,1,0.6,1.3,0.8
		c0.4,0.3,0.9,0.5,1.3,0.7C265,60.3,264.1,61.5,263.4,62.3"/>
	<path id="パス_303" class="st0" d="M273.3,54.5c4.2-0.3,8.5-0.3,12.7,0c1.4,0.1,2.4-1.5,2.9-3.1s0.6-11.1,0.8-11.5
		c0.1-0.4,0.3-0.7,0.5-0.9c0.3-0.3,0.3-0.8,0-1.4c-0.3-0.8-0.7-1.5-1.3-2.2c-0.5-0.5-1.2-0.7-2-0.7c-0.8,0-3.2,0-5.9,0
		c0,0,0-0.1,0-0.1c-0.5-1.5-2.4-2.4-2.9-2.8c-0.6-0.5-0.9-0.3-1.2,0.2c-0.7,1.2-1.6,2.2-2.7,3c-1.4,0-2.9,0.1-4.3,0.4
		c-0.8,0.3-0.9,0.4-0.8,1.3c0.4,1.3,0.7,2.7,0.8,4.1c-0.1,2.7-0.1,5.5,0.1,8.3c0.4,1.9,0.5,2.3,0.9,3.8
		C271.3,54.3,271.9,54.7,273.3,54.5 M281.1,42.3c0.5,0.2,0.4,0.4,0.2,0.8c-0.1,0.1-0.6,0.7-1.4,1.4c-1-0.6-1.9-1.3-2.4-1.7
		c0.2-0.2,0.3-0.3,0.5-0.5C279,42.2,280,42.2,281.1,42.3 M274.4,49.1c-0.2,0.1-0.5,0.3-0.7,0.4c0-0.1-0.1-0.2-0.1-0.3
		c-0.1-1.1-0.2-2.1-0.2-3.2c0.7-0.3,1.3-0.8,1.9-1.2c0.6,0.4,1.5,1,2.6,1.6C276.8,47.4,275.7,48.3,274.4,49.1 M273.4,40.6
		c0-0.6,0-0.9,0.8-1.1c0.5-0.1,1-0.2,1.6-0.2c-0.4,1.3-1.2,2.5-2.3,3.3C273.4,41.6,273.4,40.9,273.4,40.6 M276.5,50.5
		c0,0,0.1-0.1,0.1-0.1c0.5-0.5,2.4-1.6,3.7-2.6c1.4,0.8,2.7,1.7,3.8,2.8c0,0,0,0,0,0C281.6,50.3,279.1,50.2,276.5,50.5 M284.4,39
		c1,0.1,1.7,0.4,1.7,1.5c0,0.8-0.1,5.5-0.1,7.7c-0.6-0.3-2-1.2-3.5-2.1c1.1-1,2.6-2.2,2.9-2.4c0.9-0.6,0.2-1.3,0.1-1.5
		c-0.2-0.4-0.6-0.9-1-1.4c-0.4-0.6-1.1-0.9-1.8-0.7c-0.6,0.1-1.8,0.1-2.9,0.1c0.1-0.2,0.2-0.3,0.3-0.4c0.2-0.2,0.2-0.5,0.1-0.7
		l0.3,0C282.4,39,283.9,39,284.4,39"/>
	<path id="パス_304" class="st0" d="M283.3,61.8c2,0.3,4.2-0.5,4.8-1.9c0.5-0.7,0.4-1.6-0.2-2.2c-0.7-1-1.8-1.8-3-2.1
		c-0.8-0.1-0.8-0.1-0.7,0.6c0.2,1.7-0.2,3.3-1.3,4.6C282.5,61.2,282.3,61.7,283.3,61.8"/>
	<path id="パス_305" class="st0" d="M281.1,57.7c-1.2-0.2-2.3-0.8-3.1-1.7c-0.2-0.2-0.6-0.3-0.8-0.1c-0.1,0.1-0.2,0.2-0.2,0.3
		c-0.3,1.3-0.2,4.4,1.8,5.6c0.4,0.3,1,0.3,1.4,0.1c1.1-0.9,1.7-2.2,1.7-3.6C281.8,57.5,281.4,57.7,281.1,57.7"/>
	<path id="パス_306" class="st0" d="M290.4,61.2c-0.4,0.7-1,1.5-3.4,2.2c-2.1,0.7-8.1,1.2-10.8,0.5c-0.4-0.1-0.5-0.5-0.5-1
		c-0.2-1.9-0.6-3.8-1-5.6c-0.2-0.5-0.5-1-0.9-1.4c-0.7-0.4-1.5-0.7-2.3-0.9c-0.7-0.1-0.8,0.2-0.6,0.8c0.7,2,0.8,8.2,1,9.5
		s1,2.6,3.1,3.2c3.9,0.8,7.9,1.2,11.9,1c3.2-0.2,4.1-2.1,4.6-3.9c0.3-1.5,0.1-3.1-0.5-4.5C290.8,60.7,290.7,60.8,290.4,61.2"/>
	<path id="パス_307" class="st0" d="M337.4,58c-5.9-2.1-12.6-7.5-16.1-11.1c4.7,0,7.6,0.2,9.1,0.1c0.9-0.1,1.7-0.7,2.2-1.6
		c0.3-1.1,0.5-2.2,0.6-3.4c0.2-1.1-0.2-1.5-2-1.5c-1.2,0-7.8-0.1-12.1-0.1c0-0.5,0-0.8,0.1-0.9c0.1-0.9,0.4-1.7,0.8-2.4
		c0.4-0.9,0.4-1.9,0-2.8c-0.6-0.8-1.3-1.6-2.2-2.1c-1-0.8-1.4-0.9-2.3,0c-0.7,0.5-1.2,1.1-1.6,1.9c-0.5,0.8-0.4,1.8,0.2,2.6
		c0.5,0.8,0.2,1.3,0.4,2.8c0,0.3,0,0.7-0.1,1c-6.9,0-12.5,0-13.5,0.3c-0.7,0-1.3,0.5-1.5,1.1c-0.6,1.5-0.7,4.1-0.4,4.5
		c0.2,0.4,0.6,0.8,1.1,0.9c0.7,0,1.4,0,2-0.2c1-0.2,5.4,0,10.6,0c-7.5,8.4-16.1,11.9-16.9,11.9c-0.7,0-0.7,0.6-0.5,0.8
		c1.1,1.6,2.2,3.1,3.4,4.6c0.8,0.7,2.4,1.7,5-0.4c2.4-2,8.6-8.5,10.4-11.8c0,2,0.1,4,0.1,5.8c-1.2,0-2.3,0.1-3.5,0.4
		c-1,0.4-1,0.7-1.1,1.1c-0.1,0.8,0,1.5,0.1,2.3c0.2,0.7,0.2,0.7,1.1,0.8c0.3,0,1.8,0,3.5,0c0,1.8,0.1,3,0.1,3.1c0.1,1,0.3,2,0.7,2.9
		c0.4,0.8,0.9,1.8,1.7,1.8s1.4-1.1,1.8-1.7c0.4-1,0.6-2,0.7-3c0-0.2,0-1.3,0-3c1.1,0,1.9-0.1,2.3-0.1c0.9,0,1.8-0.6,2.1-1.4
		c0.3-0.7,0.4-1.4,0.4-2.2c-0.1-0.4-0.1-0.6-0.7-0.6c-0.3,0-2-0.1-4.2-0.2c0-2.2-0.1-4.6-0.1-7c1.8,2.4,7.6,10.6,11,12.5
		c1.6,0.9,3.3,1.8,4.2,1.1c1.5-1.4,2.8-3.1,3.6-4.9C338.7,57.9,338,58.2,337.4,58"/>
	<path id="パス_308" class="st0" d="M362.2,43.3c5.1,0.1,10.5,0.4,11.9,0.3c1.4,0,2.7-0.8,3.2-2.1c0.4-1.1,0.7-2.2,0.9-3.4
		c0.2-0.9,0.1-1.1-1-1.2c-0.5,0-5.3,0-10.6,0c-0.4-1.3-1.1-2.5-1.9-3.7c-0.8-0.7-2-0.7-2.8,0c-0.7,1.1-1.3,2.3-1.6,3.6
		c-3.1,0-6.3,0.2-9.4,0.6c-1.2,0.3-1.3,0.4-1.7,1c-0.8,1.3-1.1,2.7-1.1,4.2c0.2,1.1,0.7,1.4,1.4,1.4c0.5,0,0.7,0.8,0.7,1.7
		c0,3.6-2.6,13.4-7.8,14.3c-0.6,0.1-0.9,0.1-0.6,0.7c1,1.7,1,4.3,3.1,6c1.5,1.1,2.6,1.2,3.7,0.2c3.4-2.8,4.4-12.2,4.2-21.8
		c-0.1-1,0.6-1.8,1.6-1.9C355.2,43.3,358.4,43.2,362.2,43.3"/>
	<path id="パス_309" class="st0" d="M378.1,56.9c-0.6-0.5-0.2-0.6-1.1-0.7s-1.3-0.1-2-0.2s-4-0.5-8.5-0.6c-0.9,0-1.7,0-2.6,0
		c0.1-0.7,0.2-1.5,0.2-2.2c1.3-0.3,2.6-0.5,4-0.4c2.3,0.1,4.5,0.4,6.8,0.8c1.3,0.3,2.6-0.1,3.4-1.1c0.8-1.2,1.4-2.4,1.8-3.7
		c0.2-0.6,0-1-0.9-0.9c-0.3,0-3.8,0-7.3,0c-3.4,0-7,0.1-8.8,0.1c-0.5-1.4-1.7-2.5-3.1-2.8c-0.7-0.1-1.5,0.1-2.1,0.4
		c-0.7,0.3-1.1,1-0.5,1.7c0.7,0.8,2.2,5.2,2.3,8.5c-1,0.1-2.1,0.3-3.1,0.6c-1.3,0.4-1.4,0.2-1.1,2c0.2,1.5-0.4,7,1,10
		c0.7,1.5,0.8,1.5,2.1,1.7c0.6,0.1,2.3-0.3,6.3-0.2c4.6,0.1,9.1-0.2,9.5-0.2c0.6-0.1,1.2-0.4,1.6-0.9c0.7-1.1,1.3-2.3,1.7-3.6
		c0.4-1.2,0.7-3.2,0.8-3.5c0.2-0.4,0.5-0.7,1-0.9c0.5-0.2,0.7-0.7,0.5-1.2c0-0.1-0.1-0.2-0.1-0.2C379.3,58.4,378.7,57.6,378.1,56.9
		 M373.3,63.3c0,0.4,0.1,0.6-0.7,0.7c-0.8,0.1-12.3,0.3-12.8,0.2s-0.5-0.1-0.6-0.6c-0.1-0.8-0.1-1.6,0-2.4c0-0.4,0-0.4,0.6-0.5
		c0.3-0.1,3.4-0.2,6.5-0.1c2.6,0,5.9,0.2,6.6,0.2c0.4,0,0.5,0.1,0.6,0.5C373.5,62,373.5,62.7,373.3,63.3"/>
	<path id="パス_310" class="st0" d="M95.2,43.1v1l0.4,0.4l9,0.4v1.4l-0.8,0.6H91.1l-5.4,0.4l-0.8,0.2l-0.4,0.7v5.7l0.3,0.2h0.4
		l1.6-2.2l0.6-1.7l-0.2-1.4v-0.2l0.4-0.3h1.3l1,1l-0.2,1.3l-0.4,0.7l0.3,1l2.8,2.4l0.7-0.8l-0.3-3.6L92.6,50v-0.4l1-0.6h1l1.2,1.6
		L95.6,52v0.2l0.2,0.2h0.4l1.6-2.6l0.2-1v-0.6h1.4l1,1.2l-0.3,1l-0.6,0.8v0.3l2.4,1.7l2.4,1l0.6,0.6v0.4l-1.6,1l-1.3-0.2l-4-2h-0.8
		l-2.1,1.4l-0.2,0.4v0.6l0.4,0.4l6.6,0.4l0.4,0.4V58l-2.2,1.2l-4.9-0.4L95,59.2v1l0.3,0.4l5.5,0.4l4.2,0.6l0.4,0.4v0.6l-1.3,1H87.9
		L86.1,64l-1-0.2l-0.8-1v-0.6l0.4-0.4l4-0.4l3.4-0.6l0.6-0.6v-0.8l-0.6-0.6l-5,0.6h-0.4l-0.2-0.7V58l0.8-0.8l5-0.4l0.4-0.4v-0.4
		l-2-0.2l-3-1.4l-2.6,1.2h-0.4l-0.8,0.7L83.3,59l-2,4.1H80l-2-3V60l1-0.7h0.7l1.6-2.2l1.2-4l0.7-3.7l-0.7-2.2l-0.6-0.8l0.3-0.6
		l0.6-0.4l8.6-0.6l0.4-0.4l-0.2-1.4L91.3,43l0.8-0.8L93,42l1.8,0.8L95.2,43.1z"/>
	<path id="パス_311" class="st0" d="M59.2,57.4v0.4l-1.2,0.7l-1.6,0.8l-1,0.2L55,59.1l1-2l1.2-1.2l1.4,0.8L59.2,57.4z"/>
	<path id="パス_312" class="st0" d="M50.8,58.1v1.7L50,60.5h-0.8L48.6,59l-1.4-1.2v-0.4l1-0.7l1-0.2h1L50.8,58.1z"/>
	<path id="パス_313" class="st0" d="M73,60.8l-2.6-1.7l-3-2.6l-1.4-1.2v-1l1.4-0.2l1.2,0.6l1.6,0.2l0.7-0.6l0.2-7.1l0.6-1.2v-1.4
		l-1-1l-1.2-0.4l-8,0.4l-0.8,0.6l0.2,0.8l0.8,0.7h1.6l2.3-0.3l3-0.2l0.4,0.4v2l-0.4,0.4l-5,0.4l-2.4-2.2l-1.7-0.4l-2.3-1.6l-2.1-2.4
		l-1.3-0.2L49,45.6l-3,1v0.3l1.2,1.2l1.4,0.6l1.6,1.2H52l0.6,0.6v0.7L52.2,52l-3.6,0.6l-0.8,0.8v0.3l0.8,0.8h1l2.2-0.4l0.7,0.6v0.7
		l-0.2,5l-0.6,0.7H51l-1.7,0.3L47,61.8l-0.2,0.6l1.3,2l0.8,0.2l3-1.2l5.4-1l1.4-0.8v-0.4l-0.4-0.3H55l-0.6-0.4v-5.6l0.6-0.6h2.4
		l0.6-0.4l0.2-0.7l-0.8-0.8l-2-0.2l-0.7-0.7v-1l0.7-0.6l2,0.2l0.8-1v-0.8l-0.3-0.4H51v-0.4l2.6-2.4H54l3.2,2l2.8,0.4l0.8,0.8
		l-0.3,9.4l-0.6,5l1,1.4l1.3,0.4l6-4l3,2.6l1.4,0.4l1.2-1.2v-1.3H73z M63.5,50.6l0.8-0.4h3.8l0.3,1.2V52l-0.4,0.3h-4.6L63.5,50.6z
		 M63.1,55l0.3-0.2l1.3,1.4l0.3,0.6l-1.4,1.7h-0.6L63.1,55z M66.1,59.9l-2.8,1.2h-0.3v-1l2.8-1.2h0.8l0.2,0.2L66.1,59.9z"/>
</g>
<g id="丸木大" transform="translate(11127.1 -2715)">
	<path id="パス_315" d="M-11127,2758.3c0,12.9,0.1,14.2,0.3,15.1c0.8,3.6,2.6,6.8,5.2,9.3c2.6,2.6,5.9,4.4,9.5,5.1
		c2.4,0.4,4.9,0.4,7.3,0c5.5-1.1,10.2-4.7,12.8-9.6c0.8-1.4,1.3-2.9,1.7-4.5l0.3-1.4l0-14.1l0.1-14.1h-37.3L-11127,2758.3z
		 M-11090.7,2758.1c-0.1,14.5,0,14.2-0.9,16.8c-1.2,3.6-3.4,6.7-6.5,8.9c-1.7,1.2-3.5,2.1-5.5,2.7c-2.7,0.8-5.6,0.9-8.4,0.4
		c-7-1.5-12.6-7-14-14c-0.3-1.1-0.3-1.6-0.3-14.6l-0.1-13.4h35.7L-11090.7,2758.1z"/>
	<path id="パス_316" d="M-11123.6,2746.6c-0.3,0.3-0.3,0.4-0.3,2.5c0,2.1,0,2.1,0.3,2.5l0.3,0.3h6l0.3-0.3
		c0.3-0.3,0.3-0.4,0.3-1.4c0-0.4,0-0.9-0.2-1.3c-0.6-0.2-1.3-0.2-1.9-0.2h-1.8v0.9l1.4,0l1.4,0v1.2h-5.3v-3.6h5.3l0,0.5
		c0,0.5,0.1,0.5,0.5,0.5h0.4v-0.7c0-0.5-0.1-0.7-0.3-1l-0.3-0.3h-3C-11123.3,2746.3-11123.4,2746.3-11123.6,2746.6z"/>
	<path id="パス_317" d="M-11115.7,2749v2.8h0.9v-5.5h-0.9V2749z"/>
	<path id="パス_318" d="M-11114,2749v2.8h1.1v-2.2l0-2.2l2.1,2.2l2.1,2.2l0.6,0h0.6v-5.5h-0.9v4.5l-2.2-2.3l-2.2-2.3h-1.3V2749z"
		/>
	<path id="パス_319" d="M-11106.5,2746.7v0.5l2.4,0l2.5,0l-2.5,1.7l-2.4,1.7v1.2h6.3v-0.9l-2.5,0l-2.5,0l2.5-1.7l2.5-1.7v-1.1
		h-6.3V2746.7z"/>
	<path id="パス_320" d="M-11098.2,2749c-0.9,1.5-1.6,2.7-1.6,2.8s0.2,0.1,0.5,0.1c0.5,0,0.5-0.1,0.9-0.7l0.4-0.7h3.6l0.4,0.7
		c0.4,0.6,0.4,0.7,1,0.7c0.3,0,0.6,0,0.6,0s-0.7-1.3-1.6-2.8l-1.6-2.7h-1L-11098.2,2749z M-11095.5,2748.3c0.3,0.5,0.6,1,0.6,1.1
		c-0.4,0.1-0.8,0.2-1.1,0.1c-0.4,0-0.8,0-1.2-0.1c0.3-0.7,0.7-1.4,1.2-2C-11095.8,2747.6-11095.6,2747.9-11095.5,2748.3
		L-11095.5,2748.3z"/>
	<path id="パス_321" d="M-11111.6,2753.1c-6,1.1-10.9,5.4-12.8,11.2c-0.6,1.7-0.8,3.5-0.8,5.2c-0.1,2.7,0.6,5.3,1.8,7.7
		c2.3,4.5,6.5,7.7,11.5,8.8c2.2,0.3,4.3,0.3,6.5,0.1c5.5-1.1,10.2-4.9,12.3-10.1c1.5-3.9,1.6-8.3,0.2-12.3c-1.3-3.3-3.5-6.2-6.5-8.1
		c-1.8-1.2-3.9-2-6-2.4C-11107.4,2752.8-11109.5,2752.8-11111.6,2753.1z M-11110.2,2759.6v5.8l-0.4-0.1c-1.8-0.3-3.5-1.1-5-2.1
		c-1.6-1.2-3-2.8-3.9-4.6c-0.2-0.4-0.2-0.4,0.4-0.9c1.6-1.4,3.5-2.5,5.5-3.2c1-0.3,2-0.6,3.1-0.7
		C-11110.2,2753.8-11110.2,2754.1-11110.2,2759.6L-11110.2,2759.6z M-11105.6,2754c1.5,0.3,2.9,0.8,4.3,1.5c1.3,0.7,2.5,1.5,3.6,2.5
		l0.4,0.4l-0.6,1.1c-1.1,1.7-2.5,3.1-4.1,4.2c-1.2,0.7-2.6,1.3-4,1.6l-0.7,0.1v-5.8c0-3.2,0-5.8,0.1-5.8
		C-11106.7,2753.8-11106.2,2753.9-11105.6,2754L-11105.6,2754z M-11121,2762.8c1,1.2,2.1,2.3,3.3,3.2c1.9,1.4,4.2,2.3,6.5,2.8l1,0.2
		l0,0.6l0,0.6l-0.5,0.1c-3,0.4-5.8,1.7-8.1,3.6c-1.1,1-2.1,2.1-3,3.4c-0.1,0.2-0.3,0.4-0.4,0.4c-0.6-1.1-1.1-2.2-1.5-3.3
		c-1.1-3.6-0.9-7.5,0.6-11c0.3-0.7,0.6-1.4,0.8-1.6l0.2-0.4l0.2,0.3C-11121.7,2761.9-11121.4,2762.4-11121,2762.8L-11121,2762.8z
		 M-11094.2,2762.8c1.8,3.7,2,8.1,0.6,12c-0.3,1-0.8,2-1.4,2.9c0,0-0.4-0.5-0.8-1.1c-2.5-3.4-6.3-5.7-10.5-6.3l-0.5-0.1l0-0.6l0-0.6
		l1-0.2c2.2-0.4,4.2-1.2,6-2.5c1.5-1.1,2.9-2.5,4.1-4c0.2-0.3,0.4-0.6,0.6-0.8C-11094.7,2761.9-11094.4,2762.3-11094.2,2762.8
		L-11094.2,2762.8z M-11110.2,2779.5v5.8l-0.8-0.1c-3-0.5-5.7-1.8-8-3.8l-0.7-0.6l0.5-0.9c1.4-2.4,3.5-4.3,6-5.3
		c0.9-0.3,1.8-0.6,2.7-0.8C-11110.2,2773.7-11110.2,2775-11110.2,2779.5z M-11104.9,2774.2c1.2,0.4,2.3,0.9,3.3,1.6
		c1.5,1.1,2.9,2.6,3.8,4.2c0.5,0.9,0.5,0.8-0.9,2c-2.1,1.7-4.7,2.8-7.3,3.3l-0.8,0.1v-11.6l0.5,0.1
		C-11106,2773.9-11105.4,2774-11104.9,2774.2L-11104.9,2774.2z"/>
	<path id="パス_322" d="M-11092.5,2783c-0.6,0.2-1.1,0.6-1.5,1c-0.9,0.8-1.4,2-1.3,3.2c-0.1,1.2,0.4,2.4,1.3,3.2
		c0.9,0.9,2.1,1.4,3.3,1.3c1.2,0.1,2.3-0.4,3.2-1.1c0.4-0.4,0.8-0.8,1-1.3c0.3-0.6,0.4-0.8,0.4-2.1c0-1.3,0-1.5-0.4-2.1
		c-0.6-1-1.4-1.7-2.4-2.2C-11090.1,2782.6-11091.3,2782.6-11092.5,2783z M-11089.2,2783.8c0.8,0.4,1.5,1.1,1.9,2
		c0.8,1.9,0,4-1.9,4.9c-0.9,0.3-1.9,0.4-2.8,0.1c-0.8-0.4-1.4-1-1.9-1.7c-0.4-1.1-0.4-2.3,0-3.5
		C-11093,2783.9-11091,2783.1-11089.2,2783.8z"/>
	<path id="パス_323" d="M-11092.5,2787.3v2.7h0.9v-2.2h0.4c0.4,0,0.5,0.1,1.1,1.1c0.2,0.4,0.5,0.8,0.8,1.1c0.2,0,0.4,0,0.6,0
		l0.4,0l-0.7-1.1l-0.7-1.1l0.4-0.2c0.6-0.2,0.9-0.8,0.9-1.4c0-1.3-0.6-1.6-2.7-1.6h-1.3V2787.3z M-11089.9,2785.5
		c0.4,0.2,0.5,0.7,0.3,1.1c0,0,0,0,0,0c-0.3,0.1-0.7,0.2-1.1,0.2l-0.9,0.1v-1.6h0.7C-11090.5,2785.3-11090.2,2785.4-11089.9,2785.5z
		"/>
</g>
<path id="パス_314" class="st1" d="M3.5,4C3.8,4,4.1,4,4.4,4h1.9c0.3,0,0.6,0,0.9,0V3.2C7.5,3.5,8,3.8,8.5,4.1
	c0.2-0.4,0.4-0.9,0.7-1.2C8.4,2.5,7.7,2.1,7.1,1.5C6.6,1.2,6.2,0.8,5.8,0.3H4.3C3.3,1.7,2,2.9,0.4,3.8c0.4,0.3,0.7,0.7,0.9,1.1
	c0.8-0.5,1.5-1.1,2.2-1.7L3.5,4z M4.4,3C4.2,3,4,3,3.8,2.9c0.5-0.5,1-1,1.4-1.6C5.6,2,6.2,2.5,6.8,3C6.6,3,6.4,3,6.2,3L4.4,3z
	 M7.1,13.6v0.5h1.3c0-0.4-0.1-0.8-0.1-1.3v-1.7c0-0.4,0-0.7,0-1.1c-0.4,0-0.7,0-1.1,0H3.9c-0.4,0-0.7,0-1.1,0c0,0.4,0,0.6,0,1.2v1.8
	c0,0.4,0,0.8-0.1,1.3h1.3v-0.7H7.1z M4.2,11.2h2.9v1.3H4.2L4.2,11.2z M9.6,1.3C9.6,1.9,9.7,2.4,9.7,3v6.1c0,0.6,0,1.1-0.1,1.7h1.5
	C11,10.2,11,9.6,11,9.1V3c0-0.5,0-1.1,0.1-1.6L9.6,1.3z M7.2,9.4c0.5,0,0.7,0,1.1,0c0-0.4-0.1-0.8,0-1.2V5.8c0-0.5,0-0.8,0-1.2
	c-0.4,0-0.8,0.1-1.2,0.1H3.3c-0.5,0-1,0-1.5-0.1c0,0.5,0.1,1,0.1,1.5c0,3.2-0.4,5-1.5,6.7c0.4,0.3,0.8,0.7,1.1,1.1
	c0.8-1.4,1.3-3,1.5-4.6H7.2z M3.2,6.5V5.7H7v0.8H3.2z M7,7.5v0.8H3.1c0-0.3,0-0.4,0-0.8L7,7.5z M12.7,0.3c0.1,0.6,0.1,1.3,0.1,1.9
	v10.1c0,0.4-0.1,0.5-0.7,0.5c-0.6,0-1.2-0.1-1.8-0.1c0.2,0.4,0.3,0.9,0.4,1.4c0.7,0,1.1,0,1.4,0c1.8,0,2.2-0.3,2.2-1.6V2.2
	c0-0.6,0-1.3,0.1-1.9H12.7z M23.6,6.3v0.9h-3.1c-0.5,0-1.1,0-1.6-0.1v1.2c0.5-0.1,1.1-0.1,1.6-0.1h3.1v0.9h-4.3
	c-0.6,0-1.2,0-1.8-0.1v1.3c0.6-0.1,1.2-0.1,1.8-0.1h3.2c-0.7,0.6-1.4,1.1-2.2,1.4c-1,0.5-2,0.8-3.1,1c0.3,0.4,0.6,0.8,0.8,1.3
	c1.1-0.3,2.2-0.8,3.2-1.3c0.9-0.5,1.7-1.1,2.4-1.8c0,0.6,0,0.8,0,1.2v0.9c0,0.5,0,1.1-0.1,1.6H25c-0.1-0.5-0.1-1.1-0.1-1.6V12
	c0-0.3,0-0.6,0-1.2c1.7,1.6,3.7,2.7,6,3.2c0.2-0.5,0.5-0.9,0.8-1.3c-2.1-0.3-4-1.1-5.6-2.4h3.5c0.6,0,1.2,0,1.8,0.1V9.1
	c-0.6,0.1-1.2,0.1-1.8,0.1h-4.5V8.3h3.3c0.5,0,1.1,0,1.6,0.1V7.1c-0.5,0.1-1.1,0.1-1.6,0.1h-3.3V6.3H29c0.5,0,1.1,0,1.6,0.1V5.1
	c-0.5,0.1-1.1,0.1-1.6,0.1h-2c0.3-0.5,0.4-0.9,0.7-1.4h1.7c0.8,0,1.3,0,1.8,0.1V2.5c-0.6,0.1-1.2,0.1-1.8,0.1h-0.6
	c0.3-0.4,0.7-0.9,1-1.6l-1.3-0.5c-0.3,0.7-0.7,1.5-1.1,2.1h-1.2V1.5c0-0.4,0-0.8,0.1-1.2h-1.4c0,0.4,0.1,0.8,0.1,1.2v1.2h-1.3V1.4
	c0-0.4,0-0.8,0-1.2h-1.4c0.1,0.4,0.1,0.8,0.1,1.2v1.1h-1.1c-0.3-0.7-0.8-1.4-1.3-2l-1.3,0.5c0.4,0.5,0.8,1,1.1,1.5h-0.7
	c-0.6,0-1.2,0-1.7-0.1v1.3c0.5,0,1-0.1,1.8-0.1H21c0.3,0.5,0.5,0.9,0.7,1.4h-2c-0.5,0-1.1,0-1.6-0.1v1.3c0.5-0.1,1.1-0.1,1.6-0.1
	L23.6,6.3z M23,5.2c-0.2-0.5-0.4-1-0.6-1.4h3.8c-0.2,0.5-0.4,1-0.6,1.4L23,5.2z M35.3,2.7c0.5-0.1,1-0.1,1.5-0.1h0.8v8.7
	c0,0.6,0,1.3-0.1,1.9h2c-0.1-0.6-0.1-1.3-0.1-1.9V3.6c0-0.9,0-1.7,0.1-2.6c-0.5,0.1-1,0.1-1.5,0.1h-1.2c-0.5,0-1,0-1.4-0.1L35.3,2.7
	z M47.1,2.6h3.6c0.7,0,1.3,0,2,0.1V1c-0.7,0.1-1.3,0.1-2,0.1h-3.6c-0.5,0-1.1,0-1.6-0.1c0,0.1,0,0.2,0,0.3v0.3c0,0.3,0,0.6-0.1,1
	l-0.3,3.7c0,0.5-0.1,0.7-0.2,1.6l1.6,0.2c0.1-0.3,0.2-0.5,0.4-0.7c0.5-0.5,1.3-0.8,2-0.8c1.3-0.1,2.5,0.9,2.6,2.2c0,0.1,0,0.3,0,0.4
	c0.1,1.4-1,2.6-2.4,2.7c-0.1,0-0.2,0-0.3,0c-0.8,0-1.5-0.3-2-0.8c-0.2-0.3-0.4-0.6-0.5-0.9l-1.8,0.4c0.2,0.6,0.5,1.2,1,1.6
	c0.9,0.8,2.1,1.3,3.3,1.2c2.8,0,4.5-1.6,4.5-4.3c0-1.1-0.3-2.1-1.1-2.8c-0.8-0.7-1.8-1.2-2.9-1.1c-1,0-2,0.3-2.7,1
	c0-0.3,0.1-0.5,0.1-0.7L47.1,2.6z M55.6,10.4c0.6,0,1-0.1,1.9-0.1h4.2v1.2c0,0.6,0,1.2-0.1,1.8h1.9c-0.1-0.6-0.1-1.2-0.1-1.7v-1.2
	h0.6c0.5,0,1.1,0,1.6,0.1V8.7c-0.5,0.1-1.1,0.1-1.6,0.1h-0.6V3.7c0-0.9,0-1.7,0.1-2.6h-1.7c-0.4,0.6-0.8,1.1-1.2,1.7l-3.8,4.7
	c-0.8,0.9-0.8,0.9-1.1,1.3L55.6,10.4z M61.7,8.8h-4.2l3.2-4c0.5-0.7,0.8-1,1.1-1.4c-0.1,0.6-0.1,1.3-0.1,2V8.8z M70.8,9.4h-0.9
	c-0.5,0-1.1,0-1.6-0.1v1.5c0.5-0.1,1.1-0.1,1.6-0.1h5.4v2.2c0,0.5,0,1.1-0.1,1.6h1.6c-0.1-0.5-0.1-1-0.1-1.6v-2.2h3.7
	c0.5,0,1.1,0,1.6,0.1V9.3c-0.5,0.1-1.1,0.1-1.6,0.1h-3.7V6.6h2.7c0.5,0,1,0,1.5,0.1V5.3c-0.5,0.1-1,0.1-1.5,0.1h-2.6V3.2H80
	c0.5,0,1,0,1.5,0.1V1.8c-0.5,0.1-1,0.1-1.5,0.1h-7.4c0-0.1,0.1-0.2,0.2-0.4c0.2-0.4,0.2-0.4,0.3-0.7c0.1-0.2,0.1-0.2,0.2-0.4L71.7,0
	c-0.1,0.4-0.2,0.8-0.4,1.1c-0.7,1.6-1.7,3-3.1,4c0.4,0.3,0.7,0.7,1,1.1c1-0.9,1.9-1.9,2.6-3.1h3.4v2.2h-3.4c-0.4,0-0.7,0-1.1,0
	c0,0.3,0,0.6,0,0.9V9.4z M72.2,9.4V6.6h3.1v2.7H72.2z M100.9,6.1V5.5c0-0.5,0-1.1,0.1-1.6h-1.6c0.1,0.5,0.1,1.1,0.1,1.6v0.6h-7.1
	c-0.5,0-1.1,0-1.6-0.1v1.5c0.5-0.1,1.1-0.1,1.6-0.1h7.1v5.1c0,0.3-0.2,0.4-0.7,0.4c-0.7,0-1.4-0.1-2.1-0.2c0.2,0.5,0.4,0.9,0.5,1.4
	c0.6,0,1.1,0,1.6,0c0.5,0,1.1,0,1.6-0.2c0.4-0.2,0.7-0.6,0.7-1.3V7.4h1.8c0.5,0,1.1,0,1.6,0.1V6c-0.5,0.1-1.1,0.1-1.6,0.1L100.9,6.1
	z M96.6,1.8h-4.1c-0.6,0-1.1,0-1.7-0.1c0,0.4,0.1,0.7,0.1,1.1V4c0,0.4,0,0.8-0.1,1.1h1.4v-2h10.4v2h1.4c0-0.4-0.1-0.8-0.1-1.1V2.8
	c0-0.4,0-0.7,0.1-1.1c-0.5,0-1.1,0.1-1.6,0.1H98V1.2c0-0.3,0-0.7,0.1-1h-1.6c0.1,0.3,0.1,0.6,0.1,1L96.6,1.8z M96.8,11.1
	C96,10,95.1,8.9,94.1,8l-1.2,0.9c1,1,1.9,2.1,2.6,3.3L96.8,11.1z M109.7,0.4c0,0.2,0,0.4,0,0.5l-0.2,2c-0.2,1.3-0.2,2.6-0.2,4
	c0,0.3,0,1.4,0,1.8v0.3c0,0.1,0,0.1,0,0.2l1.6,0c0-0.3,0-0.3,0-0.4c0-1.9,0.7-3.6,1.9-5c0.4-0.6,1.1-0.9,1.8-0.9
	c1.4,0,2.2,1.3,2.2,3.6c0,2.4-0.8,4-2.6,4.9c-1,0.5-2.2,0.8-3.3,0.9c0.4,0.5,0.6,1,0.8,1.5c1-0.2,2-0.5,2.9-0.9
	c2.4-1.1,4-3.6,3.8-6.2c0.1-1.4-0.3-2.8-1-4c-0.6-0.9-1.6-1.4-2.6-1.4c-1.2,0-2.4,0.7-3,1.7c-0.4,0.6-0.8,1.3-0.9,2
	c-0.1,0.3-0.1,0.3-0.1,0.4h0c0-0.5,0.1-0.9,0.2-1.7c0.1-1.1,0.3-2.2,0.6-3.3L109.7,0.4z M122.2,8.2c0.3-0.1,0.7-0.1,1-0.1
	c0.1,0,0.3,0,0.6-0.1l0.6,0v4.9c0,0.5,0,1.1-0.1,1.6h1.4c-0.1-0.5-0.1-1.1-0.1-1.6v-5c0.6-0.1,0.6-0.1,1-0.1c0,0.2,0.1,0.3,0.1,0.6
	l1-0.4c-0.2-1-0.6-1.9-1-2.9l-0.9,0.3c0.2,0.4,0.4,0.8,0.5,1.2c-0.5,0.1-0.7,0.1-1.8,0.2c0.6-0.8,1.6-2.2,2.1-3.1
	c0.6-0.9,0.6-0.9,0.8-1.2l-1.2-0.7c-0.4,0.9-0.8,1.8-1.4,2.6c-0.3-0.3-0.4-0.5-0.7-0.9c0.5-0.8,1-1.6,1.4-2.5
	c0.2-0.3,0.2-0.4,0.3-0.5l-1.3-0.5c-0.3,0.9-0.7,1.8-1.2,2.7c-0.3-0.3-0.3-0.3-0.7-0.7L122,3.2c0.8,0.7,1.5,1.5,2.1,2.4
	c-0.4,0.5-0.4,0.6-0.9,1.3c-0.3,0-0.4,0-0.6,0c-0.3,0-0.4,0-0.6,0L122.2,8.2z M131,2.7v1.3h-1.4c-0.5,0-1,0-1.6-0.1v1.3
	c0.5-0.1,1-0.1,1.6-0.1h4.5c0.5,0,1,0,1.6,0.1V4c-0.5,0.1-1,0.1-1.6,0.1h-1.7V2.7h2.1c0.5,0,1.1,0,1.6,0.1V1.5
	c-0.5,0.1-1.1,0.1-1.7,0.1h-2.1V1.4c0-0.4,0-0.8,0.1-1.2h-1.5C131,0.6,131,1,131,1.4v0.2h-1.6c-0.6,0-1.1,0-1.7-0.1v1.3
	c0.5-0.1,1.1-0.1,1.6-0.1L131,2.7z M122.7,8.8c0,1.4-0.2,2.9-0.7,4.2l1.1,0.6c0.4-1.5,0.7-3.1,0.7-4.6L122.7,8.8z M126.2,8.9
	c0.3,1.1,0.5,2.2,0.5,3.4l1.1-0.3c-0.1-1.1-0.3-2.2-0.6-3.3L126.2,8.9z M129.1,9.1V7.3h5.5v1.8h1.4c-0.1-0.3-0.1-0.7-0.1-1V7.2
	c0-0.4,0-0.7,0-1.1c-0.5,0.1-1,0.1-1.6,0.1h-5.2c-0.5,0-1,0-1.4,0c0.1,0.4,0.1,0.7,0.1,1.1V8c0,0.4,0,0.7-0.1,1.1L129.1,9.1z
	 M132.1,8.1c0.1,0.4,0.1,0.8,0.1,1.2V13c0,0.3,0.1,0.6,0.3,0.8c0.2,0.2,0.6,0.3,1.5,0.3c1.3,0,1.8-0.1,2-0.7
	c0.3-0.7,0.5-1.5,0.5-2.4c-0.4-0.1-0.9-0.2-1.3-0.5c0.1,0.7,0,1.4-0.3,2.1c-0.1,0.1-0.4,0.2-0.7,0.2c-0.5,0-0.6-0.1-0.6-0.3V9.3
	c0-0.4,0-0.8,0.1-1.2L132.1,8.1z M129.8,8.1c0,0.2,0.1,0.5,0.1,0.7c0,1-0.2,2-0.7,2.8c-0.6,0.7-1.4,1.3-2.4,1.5
	c0.4,0.3,0.7,0.7,0.9,1.2c1-0.4,1.9-1,2.5-1.9c0.6-1,1-2.1,1-3.3c0-0.4,0-0.7,0.1-1.1L129.8,8.1z M143.8,5.6h0.2c0.1,0,0.2,0,0.3,0
	c0.9,0,1.3,0,1.8,0c0.7,0,1.7,0,2.2-0.1c0,0.5,0,0.6,0,0.8c0,2.2-0.1,3.1-0.6,4c-0.6,1.1-1.7,2-2.9,2.5c0.5,0.3,0.9,0.7,1.2,1.2
	c1.8-0.8,3.1-2.4,3.5-4.4c0.2-1.2,0.3-2.4,0.3-3.5c0-0.2,0-0.4,0-0.7c0.5,0,1.1-0.1,1.6-0.3C152,5,152.1,5,152.3,5l-0.1-1.5
	c-0.8,0.3-1.6,0.5-2.4,0.6c0-1,0-1.6-0.1-1.8c0-0.9,0-0.9,0-1.1c0-0.2,0-0.3,0-0.5l-1.7,0c0.1,1.2,0.2,2.3,0.2,3.5
	c-0.8,0.1-1.1,0.1-1.8,0.1c-0.9,0-1.8,0-2.7-0.2L143.8,5.6z M140.8,0.9c0,0.4-0.1,0.7-0.1,1.1c-0.4,1.9-0.6,3.9-0.6,5.9
	c0,1.6,0.2,3.3,0.6,4.9c0.1,0.3,0.1,0.4,0.1,0.6l1.5-0.1c0.3-1.7,0.8-3.4,1.7-4.9l-1.1-0.6c-0.5,0.9-0.8,1.9-1.1,2.8
	c-0.1-1.6-0.1-2.6-0.1-2.8c0-2.3,0.3-4.6,0.9-6.8L140.8,0.9z M155.2,4.3c1.6-0.3,3.2-0.4,4.8-0.5c1.1-0.1,2.2-0.2,3.3-0.3
	c-0.7,0.3-1.3,0.7-1.9,1.2c-1.2,1-2,2.5-2,4.1c0,1.5,0.8,2.8,2,3.5c1.1,0.6,2.3,1,3.5,1.1c0.2,0,0.3,0.1,0.5,0.1l0.2-1.8
	c-0.1,0-0.2,0-0.3,0c-0.8,0-1.5-0.2-2.3-0.4c-1.2-0.3-2.1-1.4-2.1-2.7c0-1.7,1.3-3.3,3.4-4.4c0.9-0.5,1.9-0.7,2.9-0.7h0.3l-0.1-1.6
	c-0.6,0.1-1.2,0.2-1.8,0.2c-3.6,0.2-7.3,0.4-9.1,0.5c-0.3,0-0.6,0.1-0.9,0c-0.2,0-0.2,0-0.5,0L155.2,4.3z M171.6,4.1
	c0.3,0,0.7,0,1,0c1.4,0,2.8-0.1,4.2-0.2c0.5,1,0.5,1.1,0.7,1.5c-1.5,0.2-3.1,0.3-4.7,0.3c-0.5,0-0.9,0-1.4-0.1l0,1.4
	c0.4-0.1,0.8-0.1,1.2-0.1c1.8,0,3.6-0.2,5.4-0.4c0.4,0.7,0.9,1.4,1.4,2c-0.9-0.3-1.9-0.4-2.9-0.4c-1.2-0.1-2.5,0.2-3.6,0.8
	c-0.8,0.4-1.3,1.2-1.3,2.1c0,0.8,0.5,1.6,1.2,2c1.1,0.6,2.3,0.8,3.6,0.7c1.4,0,2.7-0.2,4-0.6c0.5-0.1,0.6-0.2,0.9-0.2l-0.3-1.6
	c-1.5,0.7-3.1,1-4.7,1c-0.8,0-1.6-0.1-2.3-0.4c-0.4-0.2-0.7-0.6-0.7-1c0-1,1.3-1.6,3.5-1.6c1.2-0.1,2.4,0.2,3.6,0.7l1.2-0.8
	c-0.8-0.9-1.5-1.9-2.1-2.9c0.2-0.1,0.4-0.1,0.6-0.1c0.6-0.1,0.6-0.1,1.6-0.4c0.4-0.1,0.7-0.1,0.9-0.2l-0.1-1.4
	c-1.2,0.4-2.4,0.7-3.6,0.9c-0.4-0.7-0.5-0.9-0.7-1.5c0.6-0.1,2.1-0.4,2.9-0.6c0.1,0,0.3-0.1,0.4-0.1c0.3-0.1,0.3-0.1,0.5-0.1
	l-0.1-1.4c-1.4,0.5-2.8,0.8-4.2,1c-0.3-0.6-0.5-1.3-0.7-2l-1.6,0.2c0.1,0.2,0.6,1.2,0.9,1.9c-1.1,0.1-2.1,0.2-3.2,0.2
	c-0.5,0-1,0-1.5,0L171.6,4.1z M186.5,4.6h0.2c0.2,0,0.5,0,0.7,0c0.2,0,0.3,0,0.4,0c0.3,0,1.1,0,1.3,0c-0.6,2.9-1.5,5.8-2.8,8.4
	l1.6,0.7c0.7-1.6,1.3-3.3,1.8-5c0.4-1.4,0.8-3.1,1-4.2c0.9-0.1,1.7-0.2,2.6-0.3c0.3-0.1,0.3-0.1,0.5-0.1l-0.1-1.5
	c-0.9,0.3-1.8,0.4-2.7,0.5c0.1-0.4,0.1-0.6,0.2-1c0.1-0.5,0.2-1,0.3-1.5l-1.7-0.2c0,0.1,0,0.1,0,0.2c0,0.8-0.2,1.7-0.3,2.5
	c-0.3,0-0.6,0-0.9,0c-0.6,0-1.3,0-1.9-0.1L186.5,4.6z M198.5,5.1c-0.9,0-1.2,0-1.6,0c-1.5,0-3,0.2-4.4,0.5l0.1,1.4
	c1.3-0.3,2.7-0.5,4-0.5c0.6,0,1.3,0,1.9,0.1L198.5,5.1z M192.6,8.4c-0.6,0.7-1,1.5-1.1,2.5c0,0.8,0.4,1.5,1.1,1.9
	c0.9,0.4,2,0.7,3,0.6c0.9,0,1.9-0.1,2.8-0.3c0.4-0.1,0.5-0.1,0.7-0.1l-0.1-1.6c-1.1,0.4-2.3,0.6-3.5,0.6c-1.6,0-2.5-0.4-2.5-1.3
	c0-0.3,0.1-0.6,0.2-0.8c0.2-0.3,0.4-0.6,0.6-0.9L192.6,8.4z M211.9,2.5V1.4c0-0.4,0-0.8,0.1-1.2h-1.5c0.1,0.4,0.1,0.8,0.1,1.2v1
	h-1.5c-0.6,0-1.1,0-1.7-0.1v1.4c0.6-0.1,1.1-0.1,1.7-0.1h1.5V6h-2.2c-0.5,0-0.9,0-1.4-0.1v1.5c0.5-0.1,0.9-0.1,1.4-0.1h1.7
	c-0.4,0.9-1,1.8-1.6,2.5c-0.8,1-1.8,1.9-3,2.5c0.4,0.3,0.7,0.7,1,1.1c0.9-0.6,1.7-1.3,2.4-2.1c0.7-0.8,1.4-1.8,1.8-2.8
	c-0.1,1-0.1,1-0.1,1.6v2.6c0,0.5,0,1.1-0.1,1.6h1.6c-0.1-0.5-0.1-1.1-0.1-1.6v-2.6c0-0.7,0-1.1-0.1-1.6c0.3,0.9,0.9,1.8,1.5,2.5
	c0.7,0.8,1.5,1.6,2.4,2.2c0.2-0.5,0.5-1,0.8-1.4c-1.8-1.1-3.3-2.7-4.2-4.6h2c0.6,0,1.2,0,1.8,0.1V6c-0.6,0.1-1.2,0.1-1.8,0.1h-2.3
	V3.8h1.8c0.6,0,1.1,0,1.7,0.1V2.4c-0.6,0.1-1.1,0.1-1.7,0.1L211.9,2.5z M203.7,12.2v-1.6h1.6v0.8h1.3c0-0.5-0.1-1-0.1-1.7V2.9
	c0-0.5,0-1,0-1.5c-0.4,0-0.9,0.1-1.3,0.1h-1.6c-0.5,0-0.9,0-1.3-0.1c0,0.5,0.1,1,0.1,1.6v7.5c0,0.6,0,1.2-0.1,1.8L203.7,12.2z
	 M203.7,2.8h1.6v6.6h-1.6L203.7,2.8z M222.2,0.8c0.1,0.3,0.2,0.7,0.2,1c0.3,1.4,0.6,2.9,1.1,4.2c-0.7,0.3-1.4,0.8-2.1,1.3
	c-0.8,0.6-1.3,1.6-1.4,2.7c0,1,0.5,2,1.3,2.5c1.3,0.6,2.8,0.9,4.3,0.8c1.2,0,2.4-0.1,3.5-0.2c0.8-0.1,0.9-0.1,1.2-0.1l-0.1-1.8
	c-1.5,0.4-3.1,0.6-4.7,0.6c-0.8,0-1.6,0-2.4-0.2c-1-0.2-1.5-0.7-1.5-1.5c0-1.2,1.2-2.2,3.5-3.1c1.6-0.6,3.3-1.1,4.9-1.5l-0.6-1.6
	c-0.2,0.1-0.4,0.2-0.6,0.2L227,4.8c-0.8,0.3-1.3,0.4-2,0.7c-0.5-1.6-0.9-3.3-1.1-5L222.2,0.8z M241.8,6.8c-0.5,1.9-1.2,3.7-2,5.4
	c-0.5,0-0.8,0.1-1.1,0.1h-0.3l0.3,1.5c0.2-0.1,0.4-0.1,0.6-0.1c0.1,0,0.3,0,0.6-0.1c0.3,0,0.6-0.1,0.9-0.1c3.1-0.4,4-0.5,6-0.9
	c0.2,0.5,0.3,0.8,0.7,1.6l1.3-0.7c-0.8-1.9-1.8-3.7-3-5.4l-1.3,0.5c0.6,0.9,1.2,1.9,1.7,2.9c-1.2,0.2-3,0.4-4.9,0.6
	c0.7-1.7,1.4-3.5,1.9-5.3h3.6c0.6,0,1.2,0,1.8,0.1V5.4c-0.6,0.1-1.2,0.1-1.8,0.1h-6.5c-0.6,0-1.2,0-1.8-0.1v1.5
	c0.6-0.1,1.2-0.1,1.8-0.1H241.8z M237.7,4c0.7-1.5,0.8-1.8,1-2.5c0.2-0.5,0.3-0.8,0.4-1L237.6,0c-0.2,0.8-0.4,1.7-0.7,2.5
	c-0.6,1.5-1.5,2.9-2.7,4.2c0.3,0.4,0.6,0.9,0.8,1.4c0.5-0.6,1-1.3,1.4-2c0,0.6,0,1.1,0,1.8v4.8c0,0.6,0,1.2-0.1,1.9h1.6
	c-0.1-0.6-0.1-1.2-0.1-1.8L237.7,4z M239.6,2.8c0.6-0.1,1.2-0.1,1.8-0.1h4.5c0.6,0,1.2,0,1.8,0.1V1.3c-0.6,0.1-1.2,0.1-1.8,0.1h-4.5
	c-0.6,0-1.2,0-1.8-0.1V2.8z M251.4,8.1c0.2-0.1,0.5-0.1,0.7-0.1l1.5-0.1v4.9c0,0.5,0,1.1-0.1,1.6h1.5c-0.1-0.5-0.1-1.1-0.1-1.6v-5
	c0.7-0.1,0.8-0.1,1.1-0.2c0.1,0.2,0.1,0.4,0.2,0.8l1-0.4c-0.3-1-0.7-2-1.2-2.9l-0.9,0.4c0.2,0.4,0.4,0.8,0.6,1.2
	c-0.7,0.1-1.4,0.1-1.9,0.2c0.9-1.2,1.7-2.5,2.5-3.8c0.1-0.2,0.2-0.4,0.4-0.6l-1.2-0.7c-0.4,1-0.9,1.9-1.5,2.8
	c-0.3-0.4-0.4-0.5-0.7-0.9c0.5-0.7,0.9-1.3,1.2-2c0.4-0.7,0.4-0.8,0.6-1.1L253.8,0c-0.3,1-0.7,1.9-1.3,2.8l-0.6-0.7l-0.7,1.1
	c0.8,0.7,1.4,1.5,2,2.4c-0.3,0.4-0.3,0.5-0.5,0.7l-0.4,0.5c-0.5,0-0.5,0-0.6,0c-0.2,0-0.4,0-0.6,0L251.4,8.1z M263.8,3.2
	c0.5,0,1,0,1.5,0.1V1.9c-0.5,0.1-1,0.1-1.5,0.1h-2.4V1.5c0-0.4,0-0.8,0.1-1.3h-1.5C260,0.6,260,1,260,1.5V2h-1.7c-0.5,0-1,0-1.6-0.1
	v1.4c0.5-0.1,1-0.1,1.4-0.1h1.1c-0.4,0.8-0.8,1.7-1.3,2.4c-0.2,0-0.3,0-0.3,0c-0.2,0-0.5,0-0.7,0l0.2,1.3c0.4,0,0.7-0.1,1.1-0.1
	c2.7-0.2,3.6-0.2,5.3-0.4c0.3,0.4,0.5,0.8,0.7,1.2l1.1-0.8c-0.8-1.2-1.7-2.3-2.7-3.3l-1,0.7c0.4,0.4,0.8,0.8,1.1,1.2
	c-1,0.1-1.9,0.2-3.3,0.3c0.5-0.8,0.9-1.5,1.2-2.4L263.8,3.2z M251.9,8.7c0,1.5-0.2,2.9-0.7,4.3l1.1,0.5c0.5-1.5,0.7-3.1,0.7-4.7
	L251.9,8.7z M255.5,8.9c0.3,1,0.5,2.1,0.5,3.1l1.1-0.4c-0.1-1-0.3-2.1-0.6-3.1L255.5,8.9z M261.2,7.4c0.1,0.5,0.1,1,0.1,1.5v4
	c0,0.9,0.4,1.2,1.8,1.2c1.2,0,1.7-0.2,1.9-0.6c0.3-0.9,0.5-2,0.4-3c-0.5-0.1-0.9-0.3-1.3-0.6c0.1,0.9,0,1.7-0.2,2.6
	c-0.1,0.2-0.3,0.3-0.8,0.3c-0.5,0-0.6,0-0.6-0.4V8.8c0-0.5,0-1,0.1-1.5L261.2,7.4z M258.5,7.4c0,0.3,0.1,0.6,0.1,0.9
	c0,1.9-0.4,3.1-1.3,3.9c-0.4,0.4-0.9,0.7-1.4,0.9c0.4,0.3,0.8,0.7,1.1,1.1c0.9-0.5,1.7-1.3,2.1-2.2c0.5-1.1,0.8-2.3,0.8-3.5
	c0-0.4,0-0.8,0.1-1.2L258.5,7.4z M272.2,2.4c-1,0-2,0-3-0.2l0,1.5c0.1,0,0.2,0,0.2,0h0.1c0.2,0,0.5,0,0.9,0l1.5,0h0.3
	c-0.4,0.7-0.8,1.3-1,1.6c-0.7,1.1-1.5,2-2.5,2.8l1.2,1.2c0.4-0.5,0.8-1,1.3-1.4c0.9-0.9,2-1.5,3.3-1.6c0.5,0,1,0.3,1.1,0.9
	c0,0,0,0.1,0,0.1c-2.7,1.1-4,2.4-4,3.8c0,0.8,0.4,1.5,1.1,1.9c1,0.5,2.2,0.7,3.3,0.6c1.3,0,2.6-0.1,3.9-0.3c0.2,0,0.5-0.1,0.7-0.1
	l-0.2-1.7c-1.4,0.4-2.8,0.7-4.3,0.6c-2.2,0-3-0.3-3-1.3c0-0.8,0.7-1.4,2.6-2.3v0.4c0,0.7,0,1.3-0.1,2l1.5,0c0-0.3,0-0.5,0-0.8
	c0-0.1,0-0.3,0-0.5V9c0-0.3,0-0.3,0-0.8c1.3-0.5,2.7-1,4.1-1.3l-0.6-1.5c-0.3,0.2-0.7,0.4-1.1,0.4c-0.4,0.1-1.3,0.4-2.5,0.9
	c-0.1-0.5-0.3-0.9-0.6-1.2c-0.4-0.3-1-0.5-1.5-0.5c-0.9,0-1.7,0.3-2.4,0.8c-0.1,0.1-0.2,0.2-0.3,0.2l0,0c0.7-0.7,1.2-1.5,1.7-2.4
	c1.5,0,3.5-0.2,4.6-0.3c0.9-0.1,0.9-0.1,1.2-0.1l-0.1-1.5c-1.4,0.3-2.7,0.5-4.1,0.5c-0.4,0-0.7,0-0.8,0h-0.1c0,0-0.1,0-0.1,0
	c0-0.1,0.1-0.2,0.1-0.3c0.3-0.7,0.3-0.7,0.5-1.1c0-0.1,0.1-0.2,0.2-0.4l-1.7-0.2c-0.1,0.7-0.3,1.4-0.7,2L272.2,2.4z M292.8,2.7
	c-1,0.3-2,0.5-3.1,0.6V2.1c0-0.5,0-1.1,0.1-1.6h-1.6c0.1,0.5,0.1,1.1,0.1,1.7v1.2c-0.2,0-0.2,0-0.6,0c-0.2,0-0.4,0-0.7,0
	c-0.6,0-1.2,0-1.8-0.1v1.4c0.1,0,0.2,0,0.3,0c0,0,0.2,0,0.4,0c0.2,0,0.6,0,0.9,0c0.4,0,0.6,0,0.9,0c0.5,0,0.5,0,0.6,0v2.6
	c-0.8,0.3-1.5,0.7-2.2,1.3c-0.7,0.5-1.2,1.3-1.3,2.2c0,0.6,0.3,1.2,0.8,1.6c0.8,0.7,1.8,1,2.8,1.1c0.6,0.1,1.1-0.3,1.3-0.8
	c0.1-0.4,0.1-0.8,0.1-1.2l0-3.2c1-0.4,2-0.5,3.1-0.6c1.8,0,3,0.9,3,2.3c0.1,1-0.7,1.8-1.6,1.9c0,0-0.1,0-0.1,0c-0.5,0-1-0.3-1.2-0.8
	c-0.1-0.4-0.2-0.9-0.2-1.3c0-0.2,0-0.4,0-0.6c-0.4,0.3-0.9,0.5-1.4,0.6c0,0.6,0,1.3,0.2,1.9c0.3,1.1,1.3,1.8,2.5,1.7
	c1.8,0,3.4-1.4,3.4-3.3c0,0,0-0.1,0-0.1c0-1.2-0.6-2.3-1.6-2.9c-0.9-0.5-1.9-0.8-2.9-0.7c-1.1,0-2.1,0.2-3.1,0.5V4.6
	c0.7-0.1,1.4-0.2,2.2-0.3c0.5-0.1,0.6-0.1,1-0.2L292.8,2.7z M288.3,11.3c0,0.6-0.1,0.7-0.3,0.7c-0.4,0-0.8-0.2-1.1-0.4
	c-0.3-0.1-0.5-0.5-0.6-0.8c0-0.6,0.7-1.4,2.1-2L288.3,11.3z M298,4.8c-0.8-1.2-1.9-2.2-3.1-3.1l-1.2,0.8c1.2,0.9,2.3,2,3.1,3.2
	L298,4.8z M309.5,6.6V6.4c0-0.4,0-0.9,0.1-1.3h-1.5c0.1,0.4,0.1,0.9,0.1,1.3v0.2h-2.2c-0.8,0-1.2,0-1.8-0.1c0,0.5,0.1,1.1,0.1,1.7
	v4.4c0,0.6,0,1.2-0.1,1.8h1.5v-0.7h6.7v0.7h1.5c-0.1-0.6-0.1-1.1-0.1-1.7V8.2c0-0.6,0-1.1,0.1-1.7c-0.6,0.1-1.2,0.1-1.8,0.1
	L309.5,6.6z M308.2,7.8v1.7h-2.6V7.8H308.2z M309.5,7.8h2.7v1.7h-2.7V7.8z M308.2,10.7v1.8h-2.6v-1.8L308.2,10.7z M309.5,10.7h2.7
	v1.8h-2.7V10.7z M312.3,4.7c0.6,0,1.1,0,1.6,0c0-0.4-0.1-0.8,0-1.3V1.9c0-0.4,0-0.9,0-1.3c-0.6,0.1-1.1,0.1-1.7,0.1h-8.4
	c-0.7,0-1.3,0-2-0.1c0.1,0.6,0.1,1.2,0.1,1.7c0.1,2.4-0.1,4.7-0.4,7c-0.2,1.4-0.6,2.8-1.4,4c0.4,0.3,0.8,0.7,1.1,1.1
	c1.4-2.2,2-4.6,2-9.7L312.3,4.7z M303.3,3.5V1.9h9.3v1.6H303.3z M321.9,5.6h0.2c0.1,0,0.2,0,0.3,0c0.9,0,1.3,0,1.8,0
	c0.7,0,1.7,0,2.2-0.1c0,0.5,0,0.6,0,0.8c0,2.2-0.1,3.1-0.6,4c-0.6,1.1-1.7,2-2.9,2.5c0.5,0.3,0.9,0.7,1.2,1.2
	c1.8-0.8,3.1-2.4,3.5-4.4c0.2-1.2,0.3-2.4,0.3-3.6c0-0.2,0-0.4,0-0.7c0.5,0,1.1-0.1,1.6-0.3c0.5-0.1,0.6-0.1,0.8-0.2l-0.1-1.5
	c-0.8,0.3-1.6,0.5-2.4,0.6c0-1,0-1.6-0.1-1.8c0-0.9,0-0.9,0-1.1c0-0.2,0-0.3,0-0.5l-1.7,0c0.1,1.2,0.2,2.3,0.2,3.5
	c-0.8,0.1-1.1,0.1-1.8,0.1c-0.9,0-1.8,0-2.7-0.2L321.9,5.6z M318.9,0.9c0,0.4-0.1,0.7-0.1,1.1c-0.4,1.9-0.6,3.9-0.6,5.9
	c0,1.6,0.2,3.3,0.6,4.9c0.1,0.3,0.1,0.4,0.1,0.6l1.5-0.1c0.3-1.7,0.8-3.4,1.7-4.9l-1.1-0.6c-0.5,0.9-0.8,1.9-1.1,2.8
	c-0.1-1.6-0.1-2.6-0.1-2.8c0-2.3,0.3-4.6,0.9-6.8L318.9,0.9z M335.7,0.9c0,0.3,0.1,0.6,0.1,0.9c0,0.3,0,0.6,0,1.1
	c-0.1,4.5-0.1,5.4-0.1,6.3c0,2,0.4,3.1,1.4,3.8c0.8,0.5,1.7,0.7,2.7,0.7c1.7,0.1,3.4-0.7,4.5-2c0.9-1.1,1.5-2.4,1.8-3.8
	c-0.6-0.3-1.1-0.6-1.6-1c-0.1,0.9-0.4,1.7-0.7,2.5c-0.6,1.6-2.2,2.7-3.9,2.7c-0.8,0.1-1.6-0.2-2.2-0.9c-0.4-0.8-0.5-1.7-0.4-2.5
	c0-1.1,0.1-4.5,0.2-5.8c0-0.7,0.1-1.3,0.2-2L335.7,0.9z M362.5,11.7c-0.2-0.1-0.4-0.2-0.5-0.4c-1.3-1-2.7-1.7-4.3-2.2
	c0-0.2,0-0.9-0.1-2.1c0.9,0,2-0.1,2.7-0.2c0.5-0.1,1-0.2,1.5-0.2l-0.1-1.5c-1.4,0.3-2.8,0.5-4.2,0.6c0-1.2,0-1.2,0-1.8
	c1.4-0.1,2.1-0.2,3.4-0.3c0.4-0.1,0.8-0.1,1.1-0.1L362,2c-1.5,0.4-3,0.6-4.5,0.6c0-0.7,0-1.3,0.1-2H356c0.1,0.7,0.1,1.4,0.1,2.1
	c-0.5,0-1,0-1.2,0c-1.4,0-2.7-0.1-4.1-0.3l0,1.4c0.1,0,0.2,0,0.2,0c0.1,0,0.2,0,0.3,0c1.1,0.1,2.9,0.2,3.8,0.2c0.3,0,0.5,0,1,0
	l0,1.8c-0.5,0-1,0-1.3,0c-1.2,0-2.4-0.1-3.6-0.2l0,1.4h0.1c0.1,0,0.2,0,0.4,0c1.2,0.1,1.8,0.1,2.7,0.1c0.4,0,1.1,0,1.7,0
	c0,0.3,0,0.5,0,0.7c0,0.4,0,0.6,0,0.7c0,0.1,0,0.1,0,0.2v0.2c-0.4,0-0.8-0.1-1.2-0.1c-2.5,0-4,1-4,2.5c0,1.4,1.3,2.3,3.4,2.3
	c2.3,0,3.3-0.9,3.3-2.7v-0.3c0.2,0.1,0.6,0.2,0.7,0.3c1.2,0.5,2.3,1.3,3.2,2.2L362.5,11.7z M356.2,10.2c0,0,0,0.4,0,0.5
	c0,0.3,0,0.7-0.2,1c-0.4,0.4-1,0.6-1.6,0.6c-1.2,0-1.9-0.4-1.9-1c0-0.2,0.1-0.5,0.3-0.6c0.6-0.4,1.3-0.6,2-0.5
	C355.2,10.1,355.7,10.1,356.2,10.2L356.2,10.2z M366.2,4.2c1-0.2,4.7-0.4,7.2-0.4l0,0.8v0.7c0,0.1,0,0.1,0,0.2
	c-0.5-0.4-1-0.6-1.6-0.5c-1.5-0.1-2.8,1-3,2.5c0,0.1,0,0.1,0,0.2c0,1.4,1.1,2.6,2.6,2.6c0,0,0.1,0,0.1,0c1,0.1,1.9-0.4,2.3-1.3
	c-0.1,1.1-0.8,2.1-1.7,2.6c-0.8,0.5-1.7,0.8-2.6,1c0.4,0.4,0.7,0.9,0.9,1.4c0.9-0.3,1.8-0.7,2.7-1.3c1.4-0.9,2.2-2.5,2.2-4.1
	c0-0.7-0.1-1.4-0.4-2V3.8c1.2,0,1.5,0,1.9,0c0.9,0,1.7,0,2.6,0.1V2.4c-0.5,0.1-1.7,0.1-4.5,0.1c0-0.7,0-1.3,0.1-2h-1.6
	c0.1,0.7,0.1,1.3,0.1,2c-2.7,0.1-2.7,0.1-3.7,0.1c-1.7,0.1-2.3,0.1-2.8,0.1c-0.2,0-0.5,0-0.7,0L366.2,4.2z M371.9,6.2
	c0.4,0,0.8,0.1,1.1,0.4c0.2,0.2,0.3,0.5,0.3,0.8c0,0.8-0.7,1.6-1.5,1.6c0,0-0.1,0-0.1,0c-0.7,0-1.4-0.5-1.4-1.2c0,0,0-0.1,0-0.1
	C370.3,6.8,371,6.2,371.9,6.2C371.8,6.2,371.9,6.2,371.9,6.2L371.9,6.2z"/>
</svg>
