<svg id="logo" xmlns="http://www.w3.org/2000/svg" xmlns:xlink="http://www.w3.org/1999/xlink" width="200" height="214.138" viewBox="0 0 200 214.138">
  <defs>
    <style>
      .cls-1 {
        fill: none;
      }

      .cls-2 {
        clip-path: url(#clip-path);
      }

      .cls-3 {
        fill: #231916;
      }

      .cls-4 {
        fill: #f68010;
      }
    </style>
    <clipPath id="clip-path">
      <rect id="長方形_80" data-name="長方形 80" class="cls-1" width="200" height="214.138"/>
    </clipPath>
  </defs>
  <g id="グループ_56" data-name="グループ 56" class="cls-2">
    <path id="パス_55" data-name="パス 55" class="cls-3" d="M56.02,155.534c-3.455-1.1-8.089-3.879-9.987-6.148,3.276-.087,5.614-.107,6.6-.085a1.284,1.284,0,0,0,1.227-1.031c.074-.466.318-2.159.344-2.553s.1-.71-.638-.735c-.346-.011-3.944.053-7.952.2-.011-.989-.012-1.63,0-1.719a4.384,4.384,0,0,1,.54-1.374,1.337,1.337,0,0,0-.245-1.422,8.664,8.664,0,0,0-1.866-1.276,1.161,1.161,0,0,0-1.227,0c-.343.245-1.079.907-.858,1.2a3.034,3.034,0,0,1,.367,1.2c.033.153.059,1.549.082,3.515-4.1.18-7.821.4-8.033.462a.991.991,0,0,0-.884.687,5.671,5.671,0,0,0,.148,3.338c.246.343.492.515.736.441a7.062,7.062,0,0,1,1.031-.318c.59-.1,3.1-.253,6.217-.381a23.254,23.254,0,0,1-10.156,6.614c-.444.011-.393.381-.283.478s1.766,2.578,2.245,2.97a2.282,2.282,0,0,0,3.154-.234A40.354,40.354,0,0,0,42.47,152.6c.03,4.044.06,7.742.1,8.038a3.713,3.713,0,0,0,.441,1.422c.246.467.687,1.105,1.153,1.105s1.031-.613,1.251-1.005a3.013,3.013,0,0,0,.441-1.374c.023-.286-.044-3.958-.115-7.847,1.616,2.126,5.217,5.885,6.053,6.325.982.515,1.314.527,1.915.122a8.5,8.5,0,0,0,2.577-3.079c.269-.7.03-.676-.27-.772" transform="translate(11.391 50.973)"/>
    <path id="パス_56" data-name="パス 56" class="cls-3" d="M62.233,144.88c-.108-.029-.87-.011-1.87.01a8.406,8.406,0,0,1,.239-2.169,1.892,1.892,0,0,0,.025-1.485,4.014,4.014,0,0,0-1.743-1.645,2.272,2.272,0,0,0-1.521-.048,1.127,1.127,0,0,0-.54,1.508c.294.577.352.462.489,1.093a21.2,21.2,0,0,1,.152,2.773c-1.694.007-3.175.008-3.379.025-.466.036-.634.209-1.1.723a3.6,3.6,0,0,0-.557,2.792.974.974,0,0,0,.8.582c.391.026.335-.067.663-.135.183-.037,1.553-.018,3.3-.04-.454,2.137-5.493,4.634-6.124,4.85-.7.242-.57.325-.49.564a14.146,14.146,0,0,0,1.865,2.821,1.487,1.487,0,0,0,2.16.026c.505-.387,1.772-1.992,2.853-3.131-.027,3.105-.057,5.667-.019,5.929a3.751,3.751,0,0,0,.443,1.424c.245.466.739,1.126,1.153,1.1s.788-.555.981-.883a4.413,4.413,0,0,0,.443-1.842c.04-.447-.051-3.76-.105-7.35a10.359,10.359,0,0,0,1.687-.085.779.779,0,0,0,.516-1.227,14.115,14.115,0,0,0-2.236-1.816c0-.158,0-.316,0-.473.669-.03,1.183-.057,1.281-.067.492-.049,1.031-1.105,1.128-1.473a7.577,7.577,0,0,0,.049-1.668.7.7,0,0,0-.54-.687" transform="translate(18.495 51.056)"/>
    <path id="パス_57" data-name="パス 57" class="cls-3" d="M70.8,144.389c-.255-.027-.992.008-1.926.04.018-1.633.057-2.786.085-2.874a6.542,6.542,0,0,0,.223-.982c.06-.38-.16-.577-.5-.8a3.719,3.719,0,0,0-1.853-.7,1.5,1.5,0,0,0-1.19,1.706,12.277,12.277,0,0,1,.209,1.51c.011.161.086,1,.148,2.183-1.812.008-3.521.015-3.988.086a1.53,1.53,0,0,0-1.3.7,3.822,3.822,0,0,0-.3,2.791c.168.35.332.582.712.434a3.479,3.479,0,0,1,.944-.22c.236-.025,2.041-.036,4.026-.071.014,3.739-.105,8-.246,8.843-.086.516-.167,1.186-.809,1.239-3.9.318-4.523-.526-4.713-.59-.221-.071-.343-.071-.246.26S62.264,163,65.3,162.81a4.611,4.611,0,0,0,3.053-1.747,4.474,4.474,0,0,0,.687-2.258c.064-.57-.1-6.017-.156-10.683.559-.021.99-.044,1.113-.064.764-.133.973-.771,1.116-1.448,0,0,.113-.989.141-1.4.041-.6.061-.769-.448-.822" transform="translate(21.986 50.921)"/>
    <path id="パス_58" data-name="パス 58" class="cls-3" d="M63.418,153.075a8.37,8.37,0,0,0,.626-4.282,2.178,2.178,0,0,0-2.944-1.571,1.231,1.231,0,0,0-.347,1.963c1.1.945,1.948,3.276,2.23,3.914.142.321.268.292.436-.025" transform="translate(22.119 53.854)"/>
    <path id="パス_59" data-name="パス 59" class="cls-3" d="M76.565,147.462c.048-.148.061-.243.388-.332,1.857-.5,11.506-.458,12.372-.526a2.9,2.9,0,0,0,2.111-1.424,22.338,22.338,0,0,1,1.03-2.406c.32-.269.613-.613.393-.982a6.855,6.855,0,0,0-1.619-1.471,3.229,3.229,0,0,0-1.963-.54c-1.179-.051-13.386.117-14.185.245-.613.1-.761.344-.786.687-.061.869,0,10.116-2.037,13.3a6.17,6.17,0,0,1-2.478,2.258c-.32.123-.246.294-.1.589a14.012,14.012,0,0,0,2.307,2.6c.708.354,1.092.515,1.865-.1,1.546-1.228,2.624-6.552,2.7-11.9m-.007-4.232a.323.323,0,0,1,.3-.332c.4-.07,3.089-.246,5.889-.346,2.426-.087,4.988-.105,5.62-.1.434.005.478.146.473.337a4.9,4.9,0,0,1-.063.557.5.5,0,0,1-.533.5c-.747-.019-10.481.419-11.362.473-.3.018-.3-.2-.325-.355a4.97,4.97,0,0,1,0-.742" transform="translate(25.472 51.179)"/>
    <path id="パス_60" data-name="パス 60" class="cls-3" d="M93.934,156.564c-1.458-.21-6.638-.022-9.493.066-.019-.283-.041-.608-.056-.947,1.9-.049,3.6-.092,3.881-.112a1.2,1.2,0,0,0,1.055-.552,1.886,1.886,0,0,0,.369-.982c.06-.367-.063-.735-.933-.835-.728-.081-2.43-.1-4.287-.064a3.023,3.023,0,0,1,.066-.377,1.141,1.141,0,0,1,.406-.6c1.812-.025,3.369-.048,3.766-.107a1.6,1.6,0,0,0,1.325-1.3,9.567,9.567,0,0,0-1.015-2.633c.429.008.769.018.99.03a1.072,1.072,0,0,0,1.105-.638c.123-.271.3-.847.44-1.251.142-.425.026-.613-.515-.686-.873-.119-13.358.117-14.6.367a.73.73,0,0,0-.663.626,3.417,3.417,0,0,0-.1,1.313c.1.49.254.739.786.626.213-.045.926-.1,1.922-.149-.056.242-.1.46-.137.566a.829.829,0,0,1-.682.65c-.331.081-.387.272-.49.638a5.225,5.225,0,0,0,.019,2.03c.067.167.208.43.429.43s.234-.206.62-.276a32.238,32.238,0,0,1,3.439-.182,1.031,1.031,0,0,1,.328.5,3.78,3.78,0,0,1,.092.514,21.92,21.92,0,0,0-3.969.444c-.6.184-.689.392-.689.784a11.511,11.511,0,0,0,.124,1.154c.036.357.063.552.466.515a3.133,3.133,0,0,0,.71-.208c.18-.056,1.691-.113,3.467-.168-.008.335-.019.654-.025.937-2.333.04-5.618.079-7.589.224a1.935,1.935,0,0,0-1.6.981,1.652,1.652,0,0,0,.148,1.94,1.724,1.724,0,0,0,1.571.146,50.742,50.742,0,0,1,8.784-.761,61.783,61.783,0,0,1,7.754.589,2.228,2.228,0,0,0,2.111-.809,10.4,10.4,0,0,0,.958-1.694c.1-.294.268-.654-.3-.736M80.713,149.3c-.179-.014-.19-.123-.179-.264a1.194,1.194,0,0,1,.429-.8c.889-.033,1.839-.063,2.786-.09.7-.019,1.392-.031,2.051-.04a1.949,1.949,0,0,1,1.1.372c.109.135.152.574-.1.59-.49.03-5.866.242-6.092.227" transform="translate(26.605 53.291)"/>
    <path id="パス_61" data-name="パス 61" class="cls-3" d="M100.6,153.052a10.033,10.033,0,0,1-.713,1.28c-.046-.1-.092-.189-.146-.3a6.919,6.919,0,0,0-1.447-1.6,7.141,7.141,0,0,1,1.078-1.1,1.374,1.374,0,0,0,.637-1.963,10.263,10.263,0,0,0-2.236-2.586c1.336-.959,2.641-1.876,2.851-2.051.441-.369.3-1.582-.245-2.283a7.751,7.751,0,0,0-2.59-1.835,5.292,5.292,0,0,0-.6-1.122c-.171-.275-.331-.3-.723-.074a36.287,36.287,0,0,0-4.209,4.012c-.246.367-.22.514,0,.932a11.268,11.268,0,0,0,2.079,2.467,17.328,17.328,0,0,0-2.447,2.22,1.382,1.382,0,0,0-.074,1.839,6.618,6.618,0,0,0,1.693,1.719c.138.083.466.276.888.527a8.424,8.424,0,0,1-2.139,1.926,2.791,2.791,0,0,1-2.011.492c-.615-.1-.762-.074-.321.833.346.933-.051.911,1.253,2.135a1.529,1.529,0,0,0,2.257-.221,13.688,13.688,0,0,0,1.217-1.389c.023.735.064,1.434.083,1.758a7.025,7.025,0,0,0,.343,2.184c.247.538.859,1.156,1.105,1.13.22-.026.294-.236.663-.764a3.222,3.222,0,0,0,.447-1.377,4.646,4.646,0,0,0,1.2.814c.59.2.762.224,1.081-.1,1.5-1.522,1.791-6.308,1.619-7.116-.115-.542-.466-.687-.587-.392M97.08,149.37c-.007.253-.393.589-.948,1.317-.725-.54-1.291-.93-1.37-.973-.22-.123-.368-.148-.1-.564a9.587,9.587,0,0,1,1.247-1.011c.684.585,1.176,1.055,1.169,1.231M95.3,143.825c.105-.154.747-.65,1.373-1.189a4.73,4.73,0,0,1,1.057.551c.122.123.122.246,0,.417a16.138,16.138,0,0,1-1.628,1.74c-.255-.2-.495-.387-.7-.538-.71-.515-.32-.663-.1-.981m2.033,13.981c-.038-.973-.1-2.191-.057-2.929.3.186.572.358.8.507a5.863,5.863,0,0,0,.8.441c-.551.765-1.115,1.493-1.54,1.981" transform="translate(32.834 50.995)"/>
    <path id="パス_62" data-name="パス 62" class="cls-3" d="M100.3,153.1a60.159,60.159,0,0,1,7.608,0c.855.085,1.447-.933,1.717-1.891s.369-6.674.467-6.944a1.062,1.062,0,0,1,.318-.564c.2-.172.172-.467.025-.835a4.616,4.616,0,0,0-.761-1.3,1.573,1.573,0,0,0-1.178-.418c-.469-.018-1.9-.01-3.542.025-.007-.025-.007-.046-.016-.072-.321-.932-1.434-1.424-1.766-1.717-.363-.324-.549-.209-.7.109a5.555,5.555,0,0,1-1.6,1.809,15.2,15.2,0,0,0-2.564.24c-.492.2-.566.271-.467.81a10.368,10.368,0,0,1,.467,2.454,42.013,42.013,0,0,0,.048,4.981c.223,1.154.32,1.374.515,2.283s.6,1.146,1.424,1.031m4.65-7.338c.307.111.221.269.1.454-.041.06-.369.4-.828.855-.607-.389-1.128-.76-1.452-1.018.1-.1.2-.208.292-.313a8.956,8.956,0,0,1,1.889.022m-3.988,4.111c-.143.082-.277.165-.407.245-.019-.067-.04-.138-.059-.209a14.973,14.973,0,0,1-.108-1.947,6.621,6.621,0,0,0,1.12-.743c.376.24.926.583,1.54.967a15.352,15.352,0,0,1-2.086,1.687m-.612-5.116c-.026-.393.025-.516.464-.638a8.791,8.791,0,0,1,.948-.137,3.519,3.519,0,0,1-1.4,1.989c-.007-.619-.01-1.1-.015-1.215m1.861,5.954a.5.5,0,0,0,.077-.053c.328-.291,1.422-.98,2.212-1.551a14.874,14.874,0,0,1,2.3,1.674l.018.015a16.848,16.848,0,0,0-4.609-.085m4.715-6.936c.59.049,1.03.269,1.005.883-.019.495-.055,3.327-.055,4.654-.362-.18-1.215-.736-2.1-1.288.68-.6,1.548-1.328,1.719-1.451.515-.369.124-.776.048-.9a10.238,10.238,0,0,0-.6-.847.984.984,0,0,0-1.067-.417c-.388.031-1.067.055-1.728.059.071-.093.148-.189.206-.268a.358.358,0,0,0,.051-.425l.169-.008c1.187-.045,2.071-.02,2.357,0" transform="translate(35.813 50.967)"/>
    <path id="パス_63" data-name="パス 63" class="cls-3" d="M104.111,153.629a2.759,2.759,0,0,0,2.846-1.153,1.1,1.1,0,0,0-.12-1.35,3.318,3.318,0,0,0-1.817-1.276c-.48-.057-.482-.067-.417.343a3.662,3.662,0,0,1-.761,2.8c-.191.307-.325.552.269.638" transform="translate(37.963 54.858)"/>
    <path id="パス_64" data-name="パス 64" class="cls-3" d="M103.721,151.108a3.324,3.324,0,0,1-1.851-1.053.352.352,0,0,0-.615.171c-.158.8-.111,2.686,1.079,3.361a.9.9,0,0,0,.859.087,2.589,2.589,0,0,0,.995-2.172c-.042-.5-.258-.385-.467-.393" transform="translate(37.051 54.9)"/>
    <path id="パス_65" data-name="パス 65" class="cls-3" d="M110.293,153.358a3.1,3.1,0,0,1-2.023,1.337A16.77,16.77,0,0,1,101.8,155c-.245-.063-.269-.3-.32-.613A33.068,33.068,0,0,0,100.87,151a1.838,1.838,0,0,0-.529-.833,4.044,4.044,0,0,0-1.387-.54c-.439-.033-.486.148-.381.454.418,1.2.505,4.92.627,5.753a2.313,2.313,0,0,0,1.865,1.94,28.6,28.6,0,0,0,7.116.624,2.753,2.753,0,0,0,2.773-2.366,4.659,4.659,0,0,0-.32-2.724c-.139-.251-.171-.225-.343.049" transform="translate(36.076 54.786)"/>
    <path id="パス_66" data-name="パス 66" class="cls-3" d="M134.495,155.207c-3.54-1.242-7.573-4.548-9.642-6.716,2.812,0,4.549.148,5.47.04a1.742,1.742,0,0,0,1.3-.956,8.106,8.106,0,0,0,.343-2.037c.093-.641-.115-.914-1.225-.884-.7.022-4.682-.029-7.247-.042.014-.288.027-.482.031-.545a4.174,4.174,0,0,1,.467-1.473,2.078,2.078,0,0,0,.026-1.694,4.168,4.168,0,0,0-1.327-1.251c-.615-.473-.854-.529-1.4-.023a3.543,3.543,0,0,0-.982,1.128,1.433,1.433,0,0,0,.1,1.546c.294.49.148.784.25,1.716a3.7,3.7,0,0,1-.053.6c-4.12.02-7.477,0-8.075.158a.993.993,0,0,0-.883.687,5.123,5.123,0,0,0-.245,2.724.9.9,0,0,0,.637.515,4.629,4.629,0,0,0,1.228-.123c.574-.094,3.242.01,6.361,0-4.486,5.064-9.649,7.157-10.1,7.17s-.391.381-.281.478a32.825,32.825,0,0,0,2.049,2.749c.478.392,1.46,1.044,2.981-.232a39.85,39.85,0,0,0,6.25-7.1c.019,1.2.041,2.407.061,3.512a12.844,12.844,0,0,0-2.066.22c-.615.221-.615.418-.638.663a5.249,5.249,0,0,0,.049,1.374c.1.418.1.418.638.466.2.02,1.053.03,2.077.03.026,1.079.046,1.787.057,1.861a5.638,5.638,0,0,0,.443,1.74c.245.467.54,1.056,1.005,1.056s.858-.638,1.081-1.03a5.548,5.548,0,0,0,.392-1.84c.01-.124,0-.807-.01-1.817.639-.018,1.146-.04,1.358-.074a1.435,1.435,0,0,0,1.277-.859,3.735,3.735,0,0,0,.269-1.324c-.049-.22-.049-.344-.441-.392-.15-.019-1.217-.086-2.506-.113-.02-1.327-.045-2.8-.067-4.23,1.075,1.475,4.568,6.426,6.6,7.582.963.548,1.945,1.07,2.527.637a8.672,8.672,0,0,0,2.16-2.98c.478-.969.066-.8-.3-.921" transform="translate(39.973 50.994)"/>
    <path id="パス_67" data-name="パス 67" class="cls-3" d="M141.867,146.116c3.027.042,6.308.271,7.141.2a2.033,2.033,0,0,0,1.939-1.253,12.5,12.5,0,0,0,.566-2.037c.1-.564.049-.663-.613-.712-.286-.02-3.153.026-6.327.029a8.429,8.429,0,0,0-1.135-2.213,1.241,1.241,0,0,0-1.668.026,6.967,6.967,0,0,0-.952,2.2,54.7,54.7,0,0,0-5.624.355c-.721.163-.791.253-1.03.589a4.718,4.718,0,0,0-.637,2.552c.142.684.414.868.832.833.309-.023.43.48.43,1.031,0,2.2-1.537,8.085-4.649,8.637-.377.068-.567.037-.344.406.613,1.018.577,2.613,1.865,3.62.887.691,1.57.7,2.246.148,2.03-1.664,2.631-7.361,2.526-13.153a1.1,1.1,0,0,1,.97-1.167c.277-.057,2.2-.119,4.466-.086" transform="translate(47.49 51.196)"/>
    <path id="パス_68" data-name="パス 68" class="cls-3" d="M149.2,152.385c-.343-.3-.122-.37-.638-.418s-.76-.074-1.225-.1-2.368-.314-5.081-.38c-.516-.012-1.04-.011-1.555,0a6.813,6.813,0,0,0,.116-1.354,7.92,7.92,0,0,1,2.372-.253,27.954,27.954,0,0,1,4.048.466,2.034,2.034,0,0,0,2.038-.663,8.83,8.83,0,0,0,1.056-2.257c.1-.369.027-.577-.566-.54-.179.011-2.246-.015-4.344.012-2.045.03-4.175.089-5.245.053a2.752,2.752,0,0,0-1.872-1.71,2.126,2.126,0,0,0-1.251.246c-.392.2-.687.587-.3,1.055a12.586,12.586,0,0,1,1.369,5.107,10.685,10.685,0,0,0-1.833.342c-.79.242-.861.1-.689,1.178.145.908-.236,4.2.59,6.06.392.885.49.885,1.251,1.008.332.053,1.4-.179,3.779-.143,2.749.044,5.469-.1,5.717-.128a1.323,1.323,0,0,0,.956-.538,8.993,8.993,0,0,0,1.008-2.16c.22-.712.44-1.939.489-2.135a.846.846,0,0,1,.589-.515.557.557,0,0,0,.246-.858,6.838,6.838,0,0,0-1.031-1.374m-2.821,3.851c-.026.221.072.369-.393.441s-7.385.2-7.681.123-.3-.049-.367-.343a9.339,9.339,0,0,1,0-1.424c0-.246,0-.221.367-.3.182-.036,2.014-.1,3.877-.076,1.567.018,3.506.126,3.977.126.245,0,.318.074.343.3a9.171,9.171,0,0,1-.123,1.153" transform="translate(49.626 53.174)"/>
    <path id="パス_69" data-name="パス 69" class="cls-3" d="M24.3,144.554v.6l.251.251,5.415.251v.852l-.452.35H21.893l-3.258.251-.5.1-.25.4v3.459l.15.152h.251l.952-1.354.351-1.053-.1-.852v-.15l.25-.2h.8l.6.6-.1.8-.251.4.15.6,1.654,1.454.4-.5-.15-2.156-.1-.15v-.251l.6-.351h.6l.7.954-.1.852v.15l.1.1H24.9l.952-1.553.15-.6v-.351h.852l.6.7-.152.6-.351.5v.2l1.455,1,1.454.6.352.351v.25l-.954.6-.753-.15-2.406-1.2h-.452l-1.253.854-.1.25v.352l.251.25,3.96.25.251.251v.25l-1.3.7-2.909-.251-.351.251v.6l.2.251,3.309.251,2.508.35.25.251v.351l-.753.6H19.938l-1.053.251-.6-.149-.5-.6v-.351l.25-.25,2.407-.251,2.056-.351.351-.351v-.5l-.351-.351-3.008.351h-.251l-.1-.451v-.351l.451-.5,3.008-.25.251-.25v-.251l-1.2-.1-1.8-.852-1.555.753h-.251l-.5.452-.351,1.6-1.2,2.507h-.753l-1.2-1.806v-.1l.6-.4h.4l.954-1.3.7-2.407.4-2.206-.4-1.3-.35-.5.149-.351.351-.251,5.165-.35.25-.251-.1-.852-.15-.1.5-.5.5-.1,1.053.5Z" transform="translate(5.134 52.673)"/>
    <path id="パス_70" data-name="パス 70" class="cls-3" d="M6.47,150.884v.251l-.7.451-.952.5-.6.1-.25-.25.6-1.2.7-.7.854.451Z" transform="translate(1.452 54.935)"/>
    <path id="パス_71" data-name="パス 71" class="cls-3" d="M2.669,151.24v1l-.451.451h-.5l-.351-.952-.852-.7v-.251l.6-.4.6-.1h.6Z" transform="translate(0.188 55.029)"/>
    <path id="パス_72" data-name="パス 72" class="cls-3" d="M16.147,155.238l-1.555-1-1.806-1.555-.852-.7v-.6l.852-.15.7.35.954.152.4-.351.1-4.262.351-.7v-.852l-.6-.6-.7-.251-4.813.251-.5.351.1.5.5.451h.954l1.352-.2,1.806-.15.25.251v1.2l-.25.251-3.008.251-1.455-1.355-1-.25-1.4-.952-1.253-1.455-.8-.1L1.8,146.061l-1.8.6v.2l.7.753.852.351.952.753h1.1l.351.351v.451l-.25.4-2.156.35-.5.5v.2l.5.5h.6l1.3-.25.4.35v.4l-.15,3.01-.351.451H3.008l-1,.15-1.4.251-.15.35.753,1.2.451.1,1.806-.7,3.258-.6.852-.5v-.25l-.25-.2H5.415l-.351-.25v-3.411l.351-.35H6.869l.351-.251.1-.451-.452-.5-1.2-.1-.4-.4v-.6l.4-.351,1.2.152.452-.6v-.5l-.2-.251H3.008v-.25l1.555-1.455h.25l1.906,1.2,1.7.251.5.5-.15,5.667-.351,3.008.6.852.753.25,3.611-2.406,1.8,1.553.854.251.7-.753v-.8Zm-5.667-6.167.5-.251h2.257l.15.7v.4l-.251.2H10.38Zm-.25,2.657.15-.152.8.854.15.35-.852,1h-.351Zm1.8,3.008-1.654.7h-.15v-.6l1.7-.7h.5l.1.1Z" transform="translate(0 52.637)"/>
    <path id="パス_73" data-name="パス 73" class="cls-4" d="M8.739,91.482v-.227C8.739,41.788,42.357.332,96.542,0V0l.877,0c54.183.329,87.8,41.785,87.8,91.252,0,49.693-33.62,69.9-87.8,70.229v0l-.877,0c-54.185-.329-87.8-20.535-87.8-70" transform="translate(3.2)"/>
  </g>
</svg>
