<?xml version="1.0" encoding="utf-8"?>
<!-- Generator: Adobe Illustrator 24.1.0, SVG Export Plug-In . SVG Version: 6.00 Build 0)  -->
<svg version="1.1" id="S_LinkedIn_24_N" xmlns="http://www.w3.org/2000/svg" xmlns:xlink="http://www.w3.org/1999/xlink" x="0px"
	 y="0px" viewBox="0 0 24 24" style="enable-background:new 0 0 24 24;" xml:space="preserve">
<style type="text/css">
	.st0{fill:#FF13DC;fill-opacity:0;}
	.st1{fill:#707070;}
</style>
<rect id="Canvas_1_" class="st0" width="24" height="24"/>
<g>
	<path class="st1" d="M16.5,8.1c-1-2.6-3.9-4.5-7.4-4.5c-4.3,0-7.7,2.8-7.7,6.4c0,1.9,1,3.7,2.7,4.8L3,17.2l2.9-1.5
		c1,0.4,2.1,0.6,3.2,0.6c0.3,0,0.5,0,0.8,0c-0.4-0.7-0.6-1.5-0.6-2.4c0-3.2,3.1-5.8,6.9-5.8C16.2,8.1,16.4,8.1,16.5,8.1L16.5,8.1
		L16.5,8.1z M5.8,7.5c0-0.4,0.3-0.8,0.8-0.8C7,6.7,7.4,7,7.4,7.5c0,0.4-0.3,0.8-0.8,0.8C6.2,8.2,5.8,7.9,5.8,7.5L5.8,7.5L5.8,7.5z
		 M10.6,7.5c0-0.4,0.3-0.8,0.8-0.8c0.4,0,0.8,0.3,0.8,0.8c0,0.4-0.3,0.8-0.8,0.8C11,8.2,10.6,7.9,10.6,7.5L10.6,7.5z M18.3,19.1
		c-0.7,0.2-1.4,0.3-2.1,0.3c-3.6,0-6.5-2.5-6.5-5.5s2.9-5.5,6.5-5.5s6.5,2.5,6.5,5.5c0,1.8-1.1,3.4-2.7,4.4l0.8,2.1L18.3,19.1
		L18.3,19.1L18.3,19.1z M13.7,12.5c0.4,0,0.7-0.3,0.7-0.7s-0.3-0.7-0.7-0.7c-0.4,0-0.7,0.3-0.7,0.7S13.3,12.5,13.7,12.5L13.7,12.5z
		 M18.2,12.5c0.4,0,0.7-0.3,0.7-0.7s-0.3-0.7-0.7-0.7s-0.7,0.3-0.7,0.7S17.8,12.5,18.2,12.5L18.2,12.5z"/>
</g>
</svg>
