<?xml version="1.0" encoding="utf-8"?>
<!-- Generator: Adobe Illustrator 24.1.0, SVG Export Plug-In . SVG Version: 6.00 Build 0)  -->
<svg version="1.1" id="S_LinkedIn_24_N" xmlns="http://www.w3.org/2000/svg" xmlns:xlink="http://www.w3.org/1999/xlink" x="0px"
	 y="0px" viewBox="0 0 24 24" style="enable-background:new 0 0 24 24;" xml:space="preserve">
<style type="text/css">
	.st0{fill:#FF13DC;fill-opacity:0;}
	.st1{fill:#707070;}
</style>
<rect id="Canvas_1_" class="st0" width="24" height="24"/>
<path class="st1" d="M17,11.8c-0.8-0.2-0.4-0.6-0.4-0.6s0.8-1.3-0.2-2.3c-1.2-1.2-4,0.2-4,0.2c-1.1,0.3-0.8-0.2-0.6-1
	c0-1-0.3-2.7-3.3-1.7c-2.9,1-5.4,4.5-5.4,4.5C1.3,13.2,1.6,15,1.6,15c0.4,4,4.6,5,7.9,5.3c3.4,0.3,8.1-1.2,9.5-4.2
	C20.4,13.1,17.8,11.9,17,11.8L17,11.8z M9.7,19.2c-3.4,0.2-6.2-1.6-6.2-3.8c0-2.3,2.8-4.1,6.2-4.3s6.2,1.3,6.2,3.5S13.2,19,9.7,19.2
	L9.7,19.2z M9.1,12.6c-3.4,0.4-3,3.6-3,3.6s0,1,0.9,1.5c2,1.1,4.1,0.4,5.1-0.9S12.5,12.2,9.1,12.6L9.1,12.6z M8.2,17.1
	C7.6,17.2,7,16.8,7,16.3c0-0.5,0.5-1.1,1.1-1.2C8.9,15,9.4,15.5,9.4,16C9.4,16.5,8.8,17,8.2,17.1L8.2,17.1z M10.2,15.4
	c-0.2,0.2-0.5,0.1-0.6-0.1c-0.1-0.2-0.1-0.5,0.1-0.7c0.3-0.2,0.5-0.1,0.6,0.1C10.5,14.9,10.4,15.2,10.2,15.4L10.2,15.4z M18.7,10.4
	c0.3,0,0.5-0.2,0.6-0.5c0,0,0,0,0-0.1c0.4-3.8-3.1-3.1-3.1-3.1c-0.3,0-0.6,0.3-0.6,0.6c0,0,0,0,0,0v0c0,0.3,0.3,0.6,0.6,0.6
	c0,0,0,0,0,0h0c2.5-0.6,2,2,2,2C18.1,10.1,18.4,10.4,18.7,10.4C18.7,10.4,18.7,10.4,18.7,10.4L18.7,10.4z M18.3,3.8
	c-1.2-0.3-2.5,0-2.8,0c0,0-0.1,0-0.1,0c0,0,0,0,0,0c-0.4,0.1-0.7,0.6-0.6,1c0.1,0.4,0.4,0.6,0.8,0.6c0,0,0.4-0.1,0.7-0.2
	s2.8-0.1,4.1,2c0.7,1.5,0.3,2.6,0.3,2.7c0,0-0.2,0.4-0.2,0.8c0,0.5,0.4,0.7,0.8,0.7c0.4,0,0.7-0.1,0.8-0.7h0
	C23.4,6.4,20.5,4.3,18.3,3.8L18.3,3.8z"/>
</svg>
